<svg xmlns="http://www.w3.org/2000/svg" width="34.306" height="30" viewBox="0 0 34.306 30">
  <g id="shopping-basket_1_" data-name="shopping-basket (1)" transform="translate(0 -32.135)">
    <g id="Group_163100" data-name="Group 163100" transform="translate(0.972 42.916)">
      <g id="Group_163099" data-name="Group 163099">
        <path id="Path_436" data-name="Path 436" d="M46.034,193.06a1.073,1.073,0,0,0-1.281.81L41.1,210.109H20.247l-3.618-16.215a1.072,1.072,0,1,0-2.093.467l3.806,17.054a1.072,1.072,0,0,0,1.046.838H41.956A1.07,1.07,0,0,0,43,211.417l3.843-17.076A1.072,1.072,0,0,0,46.034,193.06Z" transform="translate(-14.51 -193.034)"/>
      </g>
    </g>
    <g id="Group_163102" data-name="Group 163102" transform="translate(0 42.869)">
      <g id="Group_163101" data-name="Group 163101">
        <path id="Path_437" data-name="Path 437" d="M33.234,192.329H1.072a1.072,1.072,0,1,0,0,2.144H33.234a1.072,1.072,0,1,0,0-2.144Z" transform="translate(0 -192.329)"/>
      </g>
    </g>
    <g id="Group_163104" data-name="Group 163104" transform="translate(2.144 47.126)">
      <g id="Group_163103" data-name="Group 163103">
        <path id="Path_438" data-name="Path 438" d="M60.946,255.865H33.072a1.072,1.072,0,1,0,0,2.144H60.946a1.072,1.072,0,1,0,0-2.144Z" transform="translate(-32 -255.865)"/>
      </g>
    </g>
    <g id="Group_163106" data-name="Group 163106" transform="translate(3.216 51.415)">
      <g id="Group_163105" data-name="Group 163105" transform="translate(0 0)">
        <path id="Path_439" data-name="Path 439" d="M74.8,319.865H49.072a1.072,1.072,0,0,0,0,2.144H74.8a1.072,1.072,0,0,0,0-2.144Z" transform="translate(-48 -319.865)"/>
      </g>
    </g>
    <g id="Group_163108" data-name="Group 163108" transform="translate(4.288 55.703)">
      <g id="Group_163107" data-name="Group 163107">
        <path id="Path_440" data-name="Path 440" d="M88.658,383.865H65.072a1.072,1.072,0,0,0,0,2.144H88.658a1.072,1.072,0,0,0,0-2.144Z" transform="translate(-64 -383.865)"/>
      </g>
    </g>
    <g id="Group_163110" data-name="Group 163110" transform="translate(8.619 43.193)">
      <g id="Group_163109" data-name="Group 163109" transform="translate(0 0)">
        <path id="Path_441" data-name="Path 441" d="M132.728,214.808,130.763,198.1a1.072,1.072,0,0,0-2.129.251l1.965,16.706a1.073,1.073,0,0,0,1.063.947,1.014,1.014,0,0,0,.127-.008A1.073,1.073,0,0,0,132.728,214.808Z" transform="translate(-128.626 -197.154)"/>
      </g>
    </g>
    <g id="Group_163112" data-name="Group 163112" transform="translate(21.742 43.193)">
      <g id="Group_163111" data-name="Group 163111" transform="translate(0 0)">
        <path id="Path_442" data-name="Path 442" d="M327.642,197.165a1.07,1.07,0,0,0-1.19.939l-1.965,16.706a1.071,1.071,0,0,0,.939,1.19,1,1,0,0,0,.126.008,1.073,1.073,0,0,0,1.064-.947l1.965-16.706A1.071,1.071,0,0,0,327.642,197.165Z" transform="translate(-324.479 -197.157)"/>
      </g>
    </g>
    <g id="Group_163114" data-name="Group 163114" transform="translate(16.081 43.193)">
      <g id="Group_163113" data-name="Group 163113" transform="translate(0 0)">
        <path id="Path_443" data-name="Path 443" d="M241.072,197.161A1.072,1.072,0,0,0,240,198.233v16.8a1.072,1.072,0,0,0,2.144,0v-16.8A1.072,1.072,0,0,0,241.072,197.161Z" transform="translate(-240 -197.161)"/>
      </g>
    </g>
    <g id="Group_163116" data-name="Group 163116" transform="translate(10.438 32.135)">
      <g id="Group_163115" data-name="Group 163115" transform="translate(0 0)">
        <path id="Path_444" data-name="Path 444" d="M160.807,32.192a1.074,1.074,0,0,0-1.36.67l-3.616,10.62a1.072,1.072,0,1,0,2.031.69l3.616-10.62A1.073,1.073,0,0,0,160.807,32.192Z" transform="translate(-155.773 -32.135)"/>
      </g>
    </g>
    <g id="Group_163118" data-name="Group 163118" transform="translate(18.275 32.136)">
      <g id="Group_163117" data-name="Group 163117" transform="translate(0 0)">
        <path id="Path_445" data-name="Path 445" d="M278.449,43.5l-3.618-10.62a1.072,1.072,0,1,0-2.031.69l3.618,10.62a1.072,1.072,0,0,0,2.031-.69Z" transform="translate(-272.743 -32.15)"/>
      </g>
    </g>
  </g>
</svg>
