<svg version="1.2" xmlns="http://www.w3.org/2000/svg" viewBox="0 0 20 20" width="20" height="20">
	<title>circle-check-svgrepo-com-svg-svg</title>
	<style>
		.s0 { fill: #ffffff } 
	</style>
	<path id="Layer" fill-rule="evenodd" class="s0" d="m10 20c-5.5 0-10-4.5-10-10 0-5.5 4.5-10 10-10 5.5 0 10 4.5 10 10 0 5.5-4.5 10-10 10zm0-18c-4.4 0-8 3.6-8 8 0 4.4 3.6 8 8 8 4.4 0 8-3.6 8-8 0-4.4-3.6-8-8-8z"/>
	<path id="Layer" class="s0" d="m7.3 13.7l-2-2c-0.4-0.4-0.4-1 0-1.4 0.4-0.4 1-0.4 1.4 0l1.3 1.3 5.3-5.3c0.4-0.4 1-0.4 1.4 0 0.4 0.4 0.4 1 0 1.4l-6 6c-0.4 0.4-1 0.4-1.4 0z"/>
</svg>