<svg xmlns="http://www.w3.org/2000/svg" width="22" height="22" viewBox="0 0 22 22">
  <g id="icons_Q2" data-name="icons Q2" transform="translate(-2)">
    <path id="Path_417" data-name="Path 417" d="M13,4a9,9,0,1,1-9,9,9,9,0,0,1,9-9m0-2a10.95,10.95,0,1,0,7.793,3.207A11,11,0,0,0,13,2Z" transform="translate(0 -2)" fill="#e43f4a"/>
    <path id="Path_418" data-name="Path 418" d="M20.9,19.48l2.8-2.75a1.05,1.05,0,0,0,.1-1.35.95.95,0,0,0-1.5-.1l-2.8,2.8-2.8-2.8a.95.95,0,0,0-1.5.1,1.05,1.05,0,0,0,.1,1.35l2.8,2.75-2.8,2.75a1.05,1.05,0,0,0-.1,1.35.95.95,0,0,0,1.5.1l2.8-2.8,2.8,2.8a.95.95,0,0,0,1.5-.1,1.05,1.05,0,0,0-.1-1.35Z" transform="translate(-6.501 -8.48)" fill="#e43f4a"/>
  </g>
</svg>
