<svg xmlns="http://www.w3.org/2000/svg" width="313.306" height="273.978" viewBox="0 0 313.306 273.978">
  <g id="shopping-basket_1_" data-name="shopping-basket (1)" transform="translate(0 -32.135)">
    <g id="Group_163100" data-name="Group 163100" transform="translate(8.879 130.594)">
      <g id="Group_163099" data-name="Group 163099">
        <path id="Path_436" data-name="Path 436" d="M302.41,193.268a9.8,9.8,0,0,0-11.7,7.4l-33.377,148.3H66.9L33.858,200.886a9.791,9.791,0,1,0-19.112,4.269L49.5,360.9a9.793,9.793,0,0,0,9.556,7.656H265.166a9.775,9.775,0,0,0,9.546-7.637l35.1-155.948A9.787,9.787,0,0,0,302.41,193.268Z" transform="translate(-14.51 -193.034)" fill="#ffe8be"/>
      </g>
    </g>
    <g id="Group_163102" data-name="Group 163102" transform="translate(0 130.162)">
      <g id="Group_163101" data-name="Group 163101">
        <path id="Path_437" data-name="Path 437" d="M303.516,192.329H9.791a9.791,9.791,0,0,0,0,19.582H303.516a9.791,9.791,0,1,0,0-19.582Z" transform="translate(0 -192.329)" fill="#ffe8be"/>
      </g>
    </g>
    <g id="Group_163104" data-name="Group 163104" transform="translate(19.582 169.042)">
      <g id="Group_163103" data-name="Group 163103">
        <path id="Path_438" data-name="Path 438" d="M296.352,255.865H41.791a9.791,9.791,0,0,0,0,19.582H296.352a9.791,9.791,0,0,0,0-19.582Z" transform="translate(-32 -255.865)" fill="#ffe8be"/>
      </g>
    </g>
    <g id="Group_163106" data-name="Group 163106" transform="translate(29.372 208.205)">
      <g id="Group_163105" data-name="Group 163105" transform="translate(0 0)">
        <path id="Path_439" data-name="Path 439" d="M292.771,319.865H57.791a9.791,9.791,0,0,0,0,19.582h234.98a9.791,9.791,0,1,0,0-19.582Z" transform="translate(-48 -319.865)" fill="#ffe8be"/>
      </g>
    </g>
    <g id="Group_163108" data-name="Group 163108" transform="translate(39.163 247.368)">
      <g id="Group_163107" data-name="Group 163107">
        <path id="Path_440" data-name="Path 440" d="M289.189,383.865H73.791a9.791,9.791,0,0,0,0,19.582h215.4a9.791,9.791,0,1,0,0-19.582Z" transform="translate(-64 -383.865)" fill="#ffe8be"/>
      </g>
    </g>
    <g id="Group_163110" data-name="Group 163110" transform="translate(78.71 133.115)">
      <g id="Group_163109" data-name="Group 163109" transform="translate(0 0)">
        <path id="Path_441" data-name="Path 441" d="M166.085,358.374,148.138,205.8a9.789,9.789,0,0,0-19.444,2.291l17.947,152.57a9.8,9.8,0,0,0,9.713,8.645,9.278,9.278,0,0,0,1.155-.068A9.8,9.8,0,0,0,166.085,358.374Z" transform="translate(-128.627 -197.155)" fill="#ffe8be"/>
      </g>
    </g>
    <g id="Group_163112" data-name="Group 163112" transform="translate(198.557 133.117)">
      <g id="Group_163111" data-name="Group 163111" transform="translate(0 0)">
        <path id="Path_442" data-name="Path 442" d="M353.363,197.228A9.775,9.775,0,0,0,342.5,205.8l-17.947,152.57a9.782,9.782,0,0,0,8.577,10.868,9.123,9.123,0,0,0,1.155.069,9.8,9.8,0,0,0,9.713-8.645L361.94,208.1A9.782,9.782,0,0,0,353.363,197.228Z" transform="translate(-324.479 -197.157)" fill="#ffe8be"/>
      </g>
    </g>
    <g id="Group_163114" data-name="Group 163114" transform="translate(146.862 133.119)">
      <g id="Group_163113" data-name="Group 163113" transform="translate(0 0)">
        <path id="Path_443" data-name="Path 443" d="M249.791,197.161A9.794,9.794,0,0,0,240,206.952V360.365a9.791,9.791,0,0,0,19.582,0V206.952A9.8,9.8,0,0,0,249.791,197.161Z" transform="translate(-240 -197.161)" fill="#ffe8be"/>
      </g>
    </g>
    <g id="Group_163116" data-name="Group 163116" transform="translate(95.322 32.135)">
      <g id="Group_163115" data-name="Group 163115" transform="translate(0 0)">
        <path id="Path_444" data-name="Path 444" d="M201.743,32.655a9.8,9.8,0,0,0-12.425,6.119l-33.024,96.988a9.793,9.793,0,1,0,18.544,6.305L207.862,45.08A9.8,9.8,0,0,0,201.743,32.655Z" transform="translate(-155.773 -32.136)" fill="#ffe8be"/>
      </g>
    </g>
    <g id="Group_163118" data-name="Group 163118" transform="translate(166.898 32.144)">
      <g id="Group_163117" data-name="Group 163117" transform="translate(0 0)">
        <path id="Path_445" data-name="Path 445" d="M324.855,135.778,291.811,38.79A9.793,9.793,0,1,0,273.267,45.1l33.044,96.988a9.793,9.793,0,0,0,18.544-6.305Z" transform="translate(-272.743 -32.15)" fill="#ffe8be"/>
      </g>
    </g>
  </g>
</svg>
