<svg xmlns="http://www.w3.org/2000/svg" width="285" height="285" viewBox="0 0 285 285">
  <g id="strockBg" transform="translate(-161 -636)">
    <circle id="Ellipse_4" data-name="Ellipse 4" cx="142.5" cy="142.5" r="142.5" transform="translate(161 636)" fill="#201a55"/>
    <g id="Layer_1" data-name="Layer 1" transform="translate(171 646)">
      <path id="Path_7" data-name="Path 7" d="M1642.719,865.206l.142-5.566h1.958l-.145,5.655Z" transform="translate(-1389.523 -727.141)" fill="#1f1a55"/>
      <path id="Path_8" data-name="Path 8" d="M1639.639,908.738l.422-5.549,1.953.106-.428,5.638Z" transform="translate(-1386.917 -763.978)" fill="#e3404a"/>
      <path id="Path_9" data-name="Path 9" d="M1634,952.084c.285-1.831.479-3.678.726-5.515l1.945.214c-.251,1.868-.449,3.744-.738,5.6Z" transform="translate(-1382.146 -800.672)" fill="#009a6e"/>
      <path id="Path_10" data-name="Path 10" d="M1627.67,987.824l.979-5.475,1.933.3-.994,5.564Z" transform="translate(-1376.794 -830.937)" fill="#1f1a55"/>
      <path id="Path_11" data-name="Path 11" d="M1617.65,1030.528c.278-.885.438-1.8.66-2.7l.626-2.71,1.913.41-.635,2.755c-.227.914-.391,1.849-.672,2.743Z" transform="translate(-1368.317 -867.115)" fill="#e3404a"/>
      <path id="Path_12" data-name="Path 12" d="M1605.3,1072.7l.447-1.316.384-1.337.758-2.674,1.886.516-.77,2.719-.39,1.358-.455,1.338Z" transform="translate(-1357.87 -902.853)" fill="#009a6e"/>
      <path id="Path_13" data-name="Path 13" d="M1593.4,1107.165c.359-.856.65-1.736.943-2.62l.891-2.635,1.861.6-.9,2.678c-.3.892-.6,1.787-.959,2.657Z" transform="translate(-1347.806 -932.069)" fill="#1f1a55"/>
      <path id="Path_14" data-name="Path 14" d="M1576.87,1148.037c.8-1.674,1.439-3.416,2.126-5.138l1.825.708c-.7,1.749-1.348,3.52-2.158,5.22Z" transform="translate(-1333.823 -966.741)" fill="#e3404a"/>
      <path id="Path_15" data-name="Path 15" d="M1558.149,1188.009l1.269-2.474,1.145-2.535,1.782.809-1.164,2.576-1.289,2.513Z" transform="translate(-1317.988 -1000.66)" fill="#009a6e"/>
      <path id="Path_16" data-name="Path 16" d="M1541,1220.393c.462-.806.939-1.6,1.375-2.416l1.266-2.477,1.743.889-1.288,2.517c-.442.831-.925,1.637-1.4,2.457Z" transform="translate(-1303.481 -1028.151)" fill="#1f1a55"/>
      <path id="Path_17" data-name="Path 17" d="M1518.42,1258.438l1.5-2.341c.51-.771.936-1.6,1.409-2.4l1.7.985c-.481.811-.914,1.649-1.433,2.436l-1.526,2.378Z" transform="translate(-1284.381 -1060.463)" fill="#e3404a"/>
      <path id="Path_18" data-name="Path 18" d="M1493.829,1295.28l1.612-2.267.808-1.133.752-1.17,1.634,1.077-.766,1.188-.82,1.151-1.637,2.3Z" transform="translate(-1263.581 -1091.769)" fill="#009a6e"/>
      <path id="Path_19" data-name="Path 19" d="M1471.92,1324.749l1.719-2.187c.283-.366.581-.723.854-1.1l.8-1.133,1.583,1.15-.818,1.153c-.277.382-.579.745-.868,1.116l-1.746,2.233Z" transform="translate(-1245.05 -1116.824)" fill="#1f1a55"/>
      <path id="Path_20" data-name="Path 20" d="M1443.849,1359.116c1.2-1.414,2.454-2.784,3.619-4.226l1.515,1.233c-1.184,1.466-2.455,2.859-3.676,4.294Z" transform="translate(-1221.304 -1146.057)" fill="#e3404a"/>
      <path id="Path_21" data-name="Path 21" d="M1414.019,1391.909l3.84-4.029,1.444,1.319-3.9,4.092Z" transform="translate(-1196.072 -1173.962)" fill="#009a6e"/>
      <path id="Path_22" data-name="Path 22" d="M1387.879,1417.859l4.029-3.84,1.383,1.383-4.092,3.9Z" transform="translate(-1173.962 -1196.072)" fill="#1f1a55"/>
      <path id="Path_23" data-name="Path 23" d="M1354.89,1447.469c1.443-1.165,2.813-2.417,4.226-3.619l1.3,1.458c-1.435,1.221-2.828,2.493-4.294,3.676Z" transform="translate(-1146.057 -1221.304)" fill="#e3404a"/>
      <path id="Path_24" data-name="Path 24" d="M1320.359,1475.3l1.133-.8c.376-.273.732-.57,1.1-.854l2.187-1.719,1.222,1.527-2.222,1.746c-.372.288-.734.59-1.116.868l-1.153.818Z" transform="translate(-1116.849 -1245.05)" fill="#009a6e"/>
      <path id="Path_25" data-name="Path 25" d="M1290.71,1497l1.17-.752,1.133-.808,2.267-1.612,1.151,1.583-2.3,1.637-1.151.82-1.188.766Z" transform="translate(-1091.769 -1263.581)" fill="#1f1a55"/>
      <path id="Path_26" data-name="Path 26" d="M1253.7,1521.331c.8-.473,1.623-.9,2.4-1.409l2.341-1.5,1.062,1.643-2.378,1.526c-.787.519-1.626.952-2.436,1.433Z" transform="translate(-1060.463 -1284.381)" fill="#e3404a"/>
      <path id="Path_27" data-name="Path 27" d="M1215.5,1543.66l2.477-1.266c.817-.436,1.61-.925,2.416-1.375l.969,1.7c-.819.462-1.626.954-2.457,1.4l-2.517,1.289Z" transform="translate(-1028.151 -1303.497)" fill="#009a6e"/>
      <path id="Path_28" data-name="Path 28" d="M1183,1560.563l2.535-1.145,2.474-1.269.89,1.743-2.515,1.289-2.576,1.164Z" transform="translate(-1000.66 -1317.988)" fill="#1f1a55"/>
      <path id="Path_29" data-name="Path 29" d="M1142.9,1579c1.721-.688,3.463-1.324,5.138-2.126l.79,1.789c-1.695.815-3.47,1.464-5.22,2.158Z" transform="translate(-966.741 -1333.823)" fill="#e3404a"/>
      <path id="Path_30" data-name="Path 30" d="M1101.93,1595.234l2.634-.891c.879-.293,1.759-.584,2.62-.943l.691,1.83c-.869.364-1.765.661-2.657.959l-2.677.9Z" transform="translate(-932.086 -1347.806)" fill="#009a6e"/>
      <path id="Path_31" data-name="Path 31" d="M1067.37,1606.889l2.674-.758,1.337-.384,1.316-.447.6,1.86-1.338.455-1.358.39-2.719.77Z" transform="translate(-902.853 -1357.87)" fill="#1f1a55"/>
      <path id="Path_32" data-name="Path 32" d="M1025.12,1618.945l2.71-.626c.9-.222,1.814-.382,2.7-.66l.5,1.891c-.9.281-1.829.446-2.743.672l-2.755.635Z" transform="translate(-867.115 -1368.325)" fill="#e3404a"/>
      <path id="Path_33" data-name="Path 33" d="M982.349,1628.649l5.475-.979.393,1.917-5.564.994Z" transform="translate(-830.937 -1376.794)" fill="#009a6e"/>
      <path id="Path_34" data-name="Path 34" d="M946.57,1634.745c1.837-.247,3.684-.441,5.515-.726l.308,1.933c-1.86.29-3.736.487-5.6.739Z" transform="translate(-800.672 -1382.163)" fill="#1f1a55"/>
      <path id="Path_35" data-name="Path 35" d="M903.19,1640.062l5.549-.422.2,1.947-5.638.428Z" transform="translate(-763.978 -1386.917)" fill="#e3404a"/>
      <path id="Path_36" data-name="Path 36" d="M859.64,1642.861l5.566-.142.089,1.954-5.655.145Z" transform="translate(-727.141 -1389.523)" fill="#009a6e"/>
      <path id="Path_37" data-name="Path 37" d="M864.651,1675.186q-2.649-3.817-5.011-7.645c3.147-.1,6.3-.08,9.434-.392C867.7,1669.849,866.226,1672.589,864.651,1675.186Z" transform="translate(-727.141 -1410.186)" fill="#e3404a"/>
      <path id="Path_38" data-name="Path 38" d="M932.919,1686.87c-1.093-1.344-2.158-2.774-3.2-4.161.912-.08,1.83-.116,2.737-.233l2.727-.347Q934.1,1684.5,932.919,1686.87Z" transform="translate(-786.419 -1422.858)" fill="#e3404a"/>
      <path id="Path_39" data-name="Path 39" d="M974.025,1660.439q-1.563-1.7-3.056-3.4-1.5-1.761-2.928-3.545l2.341-.3,2.323-.416,2.324-.415c.771-.139,1.552-.263,2.312-.462-.495,1.461-1.028,2.857-1.582,4.273S974.629,1659.016,974.025,1660.439Z" transform="translate(-818.833 -1397.288)" fill="#e3404a"/>
      <path id="Path_40" data-name="Path 40" d="M1043.405,1665.815q-1.91-1.824-3.725-3.673l2.677-.617,1.338-.308c.446-.108.883-.245,1.326-.367-.253.832-.507,1.685-.771,2.507Z" transform="translate(-879.432 -1404.858)" fill="#e3404a"/>
      <path id="Path_41" data-name="Path 41" d="M1076.153,1632.963q-3.559-3.023-6.833-6.136l4.542-1.288c1.5-.477,2.982-1,4.47-1.5C1077.7,1626.98,1076.977,1629.981,1076.153,1632.963Z" transform="translate(-904.503 -1373.722)" fill="#e3404a"/>
      <path id="Path_42" data-name="Path 42" d="M1145.421,1632.139c-1.416-1.037-2.785-2.038-4.161-3.14,1.723-.616,3.414-1.328,5.122-1.99Q1145.948,1629.558,1145.421,1632.139Z" transform="translate(-965.354 -1376.235)" fill="#e3404a"/>
      <path id="Path_43" data-name="Path 43" d="M1179.73,1590.313c-2.62-1.669-5.128-3.34-7.58-5.124,1.452-.607,2.873-1.285,4.316-1.923.711-.336,1.446-.624,2.139-1l2.1-1.079q-.167,2.267-.4,4.569C1180.152,1587.309,1179.943,1588.783,1179.73,1590.313Z" transform="translate(-991.483 -1337.476)" fill="#e3404a"/>
      <path id="Path_44" data-name="Path 44" d="M1247.629,1583.09c-1.521-.8-3.069-1.714-4.559-2.588,1.648-.8,3.224-1.738,4.812-2.653Q1247.8,1580.447,1247.629,1583.09Z" transform="translate(-1051.472 -1334.652)" fill="#e3404a"/>
      <path id="Path_45" data-name="Path 45" d="M1272.774,1537.7c-1.4-.652-2.759-1.29-4.128-1.988s-2.725-1.42-4.057-2.149l2.047-1.176c.678-.4,1.33-.843,2-1.261l1.987-1.275c.66-.43,1.336-.832,1.968-1.3.1,1.541.134,3.026.165,4.551S1272.788,1536.154,1272.774,1537.7Z" transform="translate(-1069.675 -1292.95)" fill="#e3404a"/>
      <path id="Path_46" data-name="Path 46" d="M1338.333,1524.418q-2.466-.959-4.843-1.975l2.238-1.592,1.121-.8c.366-.274.721-.562,1.078-.844.085.866.17,1.746.238,2.62Z" transform="translate(-1127.955 -1285.049)" fill="#e3404a"/>
      <path id="Path_47" data-name="Path 47" d="M1363.4,1470.423c-1.452-.433-2.928-.944-4.381-1.447s-2.879-1.031-4.291-1.57l1.85-1.458c.617-.49,1.249-.958,1.833-1.487l3.568-3.091Q1362.811,1465.8,1363.4,1470.423Z" transform="translate(-1145.922 -1236.125)" fill="#e3404a"/>
      <path id="Path_48" data-name="Path 48" d="M1425.364,1451.214q-2.556-.616-5.045-1.293l3.978-3.791Q1424.864,1448.639,1425.364,1451.214Z" transform="translate(-1201.402 -1223.234)" fill="#e3404a"/>
      <path id="Path_49" data-name="Path 49" d="M1441.385,1396.181q-4.579-.826-8.956-1.866l3.258-3.417.815-.854.771-.89,1.541-1.785q.7,2.158,1.351,4.373l.637,2.224Z" transform="translate(-1211.646 -1173.531)" fill="#e3404a"/>
      <path id="Path_50" data-name="Path 50" d="M1498.666,1371.556c-.868-.092-1.723-.184-2.585-.293l-2.6-.368.9-1.039.85-1.079,1.7-2.158Q1497.826,1369.05,1498.666,1371.556Z" transform="translate(-1263.286 -1155.978)" fill="#e3404a"/>
      <path id="Path_51" data-name="Path 51" d="M1512.982,1308.873q-2.312-.1-4.586-.256l-2.263-.173-2.285-.236.729-.925.686-.961,1.367-1.924,1.369-1.924c.438-.653.853-1.322,1.281-1.983.658,1.367,1.315,2.762,1.936,4.162S1512.409,1307.444,1512.982,1308.873Z" transform="translate(-1272.057 -1100.041)" fill="#e3404a"/>
      <path id="Path_52" data-name="Path 52" d="M1564.606,1278.974q-2.653.051-5.256.021l1.483-2.313,1.369-2.383Q1563.43,1276.6,1564.606,1278.974Z" transform="translate(-1319.003 -1077.888)" fill="#e3404a"/>
      <path id="Path_53" data-name="Path 53" d="M1570.253,1218.423c-3.02.294-6.151.415-9.163.49,1.626-2.7,3.007-5.527,4.445-8.323Q1567.965,1214.374,1570.253,1218.423Z" transform="translate(-1320.475 -1023.999)" fill="#e3404a"/>
      <path id="Path_54" data-name="Path 54" d="M1615.637,1183.936q-2.6.4-5.168.71c.744-1.674,1.531-3.329,2.241-5.017C1613.732,1181.051,1614.671,1182.47,1615.637,1183.936Z" transform="translate(-1362.243 -997.81)" fill="#e3404a"/>
      <path id="Path_55" data-name="Path 55" d="M1618.125,1116.827q-4.564,1-9.026,1.714l1.733-4.391,1.516-4.47C1614.306,1111.968,1616.241,1114.353,1618.125,1116.827Z" transform="translate(-1361.084 -938.642)" fill="#e3404a"/>
      <path id="Path_56" data-name="Path 56" d="M1656,1078.2c-1.68.5-3.32.978-5.009,1.406.535-1.751,1.011-3.522,1.518-5.28Q1654.267,1076.221,1656,1078.2Z" transform="translate(-1396.517 -908.74)" fill="#e3404a"/>
      <path id="Path_57" data-name="Path 57" d="M1650.808,1015.931q-2.178.792-4.337,1.512l-2.158.7-2.2.651.322-1.135.266-1.15.53-2.3.531-2.3c.165-.771.284-1.541.429-2.321,1.128,1.013,2.278,2.053,3.375,3.109S1649.733,1014.829,1650.808,1015.931Z" transform="translate(-1389.007 -853.979)" fill="#e3404a"/>
      <path id="Path_58" data-name="Path 58" d="M1680.8,974q-2.429,1.059-4.848,2.025l.484-2.705c.154-.9.241-1.816.364-2.723C1678.134,971.7,1679.5,972.842,1680.8,974Z" transform="translate(-1417.631 -820.999)" fill="#e3404a"/>
      <path id="Path_59" data-name="Path 59" d="M1671.185,907.145c-2.671,1.441-5.5,2.774-8.255,4.007.462-3.115.617-6.264.874-9.4Q1667.5,904.3,1671.185,907.145Z" transform="translate(-1406.619 -762.761)" fill="#e3404a"/>
      <path id="Path_60" data-name="Path 60" d="M1692.645,862.481q-2.247,1.373-4.485,2.653l.138-5.493Q1690.472,861.013,1692.645,862.481Z" transform="translate(-1427.958 -727.141)" fill="#e3404a"/>
      <path id="Path_61" data-name="Path 61" d="M823.049,1642.719l5.564.142v1.958l-5.654-.145Z" transform="translate(-696.115 -1389.523)" fill="#1f1a55"/>
      <path id="Path_62" data-name="Path 62" d="M779.026,1639.639l5.549.422-.106,1.953-5.638-.428Z" transform="translate(-658.787 -1386.917)" fill="#e3404a"/>
      <path id="Path_63" data-name="Path 63" d="M735.273,1634c1.831.285,3.678.479,5.515.726l-.214,1.945c-1.868-.251-3.744-.449-5.6-.738Z" transform="translate(-621.687 -1382.146)" fill="#009a6e"/>
      <path id="Path_64" data-name="Path 64" d="M699.263,1627.67l5.475.979-.3,1.933-5.564-.994Z" transform="translate(-591.151 -1376.794)" fill="#1f1a55"/>
      <path id="Path_65" data-name="Path 65" d="M656.338,1617.65c.886.278,1.8.438,2.7.66l2.71.626-.411,1.913-2.753-.635c-.914-.227-1.85-.391-2.743-.672Z" transform="translate(-554.754 -1368.317)" fill="#e3404a"/>
      <path id="Path_66" data-name="Path 66" d="M614.044,1605.3l1.316.447,1.336.384,2.674.758-.516,1.886-2.719-.77-1.358-.39-1.338-.455Z" transform="translate(-518.889 -1357.87)" fill="#009a6e"/>
      <path id="Path_67" data-name="Path 67" d="M579.554,1593.4c.855.359,1.735.65,2.62.943l2.634.891-.6,1.861-2.677-.9c-.894-.3-1.788-.6-2.657-.959Z" transform="translate(-489.647 -1347.806)" fill="#1f1a55"/>
      <path id="Path_68" data-name="Path 68" d="M538.72,1576.87c1.674.8,3.415,1.439,5.137,2.126l-.707,1.825c-1.749-.7-3.521-1.348-5.221-2.158Z" transform="translate(-455.017 -1333.823)" fill="#e3404a"/>
      <path id="Path_69" data-name="Path 69" d="M498.9,1558.149l2.474,1.269,2.536,1.145-.809,1.782-2.576-1.164-2.515-1.289Z" transform="translate(-421.25 -1317.988)" fill="#009a6e"/>
      <path id="Path_70" data-name="Path 70" d="M466.7,1541c.806.462,1.6.939,2.417,1.375l2.477,1.266-.886,1.746L468.2,1544.1c-.831-.442-1.637-.925-2.457-1.4Z" transform="translate(-393.954 -1303.481)" fill="#1f1a55"/>
      <path id="Path_71" data-name="Path 71" d="M429.022,1518.42l2.341,1.5c.771.51,1.6.936,2.4,1.409l-.985,1.7c-.811-.481-1.649-.914-2.437-1.433l-2.378-1.526Z" transform="translate(-361.997 -1284.381)" fill="#e3404a"/>
      <path id="Path_72" data-name="Path 72" d="M392.611,1493.829l2.267,1.612,1.133.808,1.17.752-1.077,1.634-1.188-.766-1.151-.82-2.3-1.637Z" transform="translate(-331.123 -1263.581)" fill="#009a6e"/>
      <path id="Path_73" data-name="Path 73" d="M363.552,1471.92l2.187,1.719c.367.283.723.581,1.1.854l1.133.8-1.151,1.583-1.151-.818c-.382-.277-.745-.579-1.116-.868l-2.223-1.746Z" transform="translate(-306.483 -1245.05)" fill="#1f1a55"/>
      <path id="Path_74" data-name="Path 74" d="M329.861,1443.849c1.413,1.2,2.784,2.454,4.226,3.619l-1.233,1.515c-1.466-1.184-2.859-2.455-4.294-3.676Z" transform="translate(-277.918 -1221.304)" fill="#e3404a"/>
      <path id="Path_75" data-name="Path 75" d="M297.683,1414.019l4.029,3.84-1.319,1.444-4.092-3.9Z" transform="translate(-250.631 -1196.072)" fill="#009a6e"/>
      <path id="Path_76" data-name="Path 76" d="M272.434,1387.879l3.839,4.029-1.383,1.383-3.9-4.092Z" transform="translate(-229.222 -1173.962)" fill="#1f1a55"/>
      <path id="Path_77" data-name="Path 77" d="M243.685,1354.89c1.165,1.443,2.417,2.813,3.619,4.226l-1.458,1.3c-1.221-1.435-2.492-2.828-3.676-4.294Z" transform="translate(-204.844 -1146.057)" fill="#e3404a"/>
      <path id="Path_78" data-name="Path 78" d="M216.773,1320.359l.8,1.133c.271.376.57.732.852,1.1l1.72,2.183L218.623,1326l-1.746-2.222c-.288-.372-.59-.734-.868-1.116l-.818-1.153Z" transform="translate(-182.022 -1116.849)" fill="#009a6e"/>
      <path id="Path_79" data-name="Path 79" d="M195.914,1290.71l.752,1.17.808,1.133,1.612,2.267-1.583,1.151-1.638-2.3-.818-1.151-.766-1.188Z" transform="translate(-164.335 -1091.769)" fill="#1f1a55"/>
      <path id="Path_80" data-name="Path 80" d="M172.721,1253.7c.473.8.9,1.623,1.409,2.4l1.5,2.341-1.643,1.062-1.528-2.378c-.518-.787-.951-1.626-1.432-2.436Z" transform="translate(-144.669 -1060.463)" fill="#e3404a"/>
      <path id="Path_81" data-name="Path 81" d="M151.59,1215.5l1.265,2.477c.436.817.925,1.61,1.375,2.416l-1.7.969c-.462-.819-.954-1.626-1.4-2.457l-1.289-2.517Z" transform="translate(-126.753 -1028.151)" fill="#009a6e"/>
      <path id="Path_82" data-name="Path 82" d="M135.7,1183l1.145,2.535,1.269,2.474-1.743.889-1.289-2.513-1.164-2.576Z" transform="translate(-113.279 -1000.66)" fill="#1f1a55"/>
      <path id="Path_83" data-name="Path 83" d="M118.63,1142.9c.686,1.721,1.324,3.463,2.127,5.138l-1.789.79c-.815-1.695-1.464-3.47-2.158-5.22Z" transform="translate(-98.806 -966.741)" fill="#e3404a"/>
      <path id="Path_84" data-name="Path 84" d="M103.773,1101.93l.891,2.634c.293.879.584,1.759.943,2.62l-1.834.684c-.364-.869-.66-1.765-.959-2.657l-.9-2.677Z" transform="translate(-86.202 -932.086)" fill="#009a6e"/>
      <path id="Path_85" data-name="Path 85" d="M93.327,1067.37l.758,2.674.384,1.337.447,1.316-1.86.6-.455-1.338-.39-1.358-.771-2.719Z" transform="translate(-77.346 -902.853)" fill="#1f1a55"/>
      <path id="Path_86" data-name="Path 86" d="M82.8,1025.12l.626,2.71c.222.9.382,1.814.66,2.7l-1.891.5c-.281-.9-.445-1.829-.672-2.743l-.635-2.755Z" transform="translate(-68.422 -867.115)" fill="#e3404a"/>
      <path id="Path_87" data-name="Path 87" d="M74.663,982.349l.979,5.475-1.917.393-.994-5.564Z" transform="translate(-61.52 -830.937)" fill="#009a6e"/>
      <path id="Path_88" data-name="Path 88" d="M69.885,946.57c.247,1.837.441,3.684.726,5.515l-1.933.308c-.29-1.86-.487-3.736-.738-5.6Z" transform="translate(-57.468 -800.672)" fill="#1f1a55"/>
      <path id="Path_89" data-name="Path 89" d="M66.193,903.19l.422,5.549-1.947.2L64.24,903.3Z" transform="translate(-54.338 -763.978)" fill="#e3404a"/>
      <path id="Path_90" data-name="Path 90" d="M64.907,859.64l.14,5.566-1.954.089-.143-5.655Z" transform="translate(-53.247 -727.141)" fill="#009a6e"/>
      <path id="Path_91" data-name="Path 91" d="M0,864.651q3.818-2.643,7.645-5.011c.1,3.147.08,6.3.391,9.434C5.338,867.7,2.6,866.226,0,864.651Z" transform="translate(0 -727.141)" fill="#e3404a"/>
      <path id="Path_92" data-name="Path 92" d="M6.4,932.919c1.344-1.093,2.774-2.158,4.162-3.2.08.912.116,1.83.233,2.737l.347,2.727Q8.775,934.1,6.4,932.919Z" transform="translate(-5.414 -786.419)" fill="#e3404a"/>
      <path id="Path_93" data-name="Path 93" d="M12,973.992q1.7-1.564,3.4-3.064,1.762-1.5,3.545-2.929l.3,2.347.416,2.323.415,2.324c.139.771.264,1.552.462,2.312-1.461-.495-2.858-1.028-4.274-1.581S13.421,974.6,12,973.992Z" transform="translate(-10.15 -818.799)" fill="#e3404a"/>
      <path id="Path_94" data-name="Path 94" d="M26.23,1043.405q1.823-1.91,3.671-3.725l.617,2.677.308,1.338c.108.446.245.883.367,1.326-.832-.253-1.685-.507-2.506-.771Z" transform="translate(-22.187 -879.432)" fill="#e3404a"/>
      <path id="Path_95" data-name="Path 95" d="M37.35,1076.153q3.024-3.559,6.136-6.833l1.289,4.542c.478,1.5,1,2.982,1.5,4.47C43.333,1077.7,40.332,1076.977,37.35,1076.153Z" transform="translate(-31.593 -904.503)" fill="#e3404a"/>
      <path id="Path_96" data-name="Path 96" d="M59,1145.421c1.037-1.416,2.038-2.785,3.14-4.161.617,1.723,1.329,3.414,1.99,5.122Q61.582,1145.948,59,1145.421Z" transform="translate(-49.906 -965.354)" fill="#e3404a"/>
      <path id="Path_97" data-name="Path 97" d="M78.9,1179.73c1.671-2.62,3.342-5.128,5.125-7.58.606,1.452,1.285,2.873,1.924,4.316.336.711.624,1.446,1,2.139l1.079,2.1q-2.269-.167-4.569-.4C81.906,1180.154,80.431,1179.941,78.9,1179.73Z" transform="translate(-66.739 -991.483)" fill="#e3404a"/>
      <path id="Path_98" data-name="Path 98" d="M107.44,1247.629c.8-1.521,1.714-3.069,2.588-4.559.8,1.648,1.739,3.224,2.651,4.812Q110.082,1247.8,107.44,1247.629Z" transform="translate(-90.88 -1051.472)" fill="#e3404a"/>
      <path id="Path_99" data-name="Path 99" d="M131.36,1272.774c.652-1.4,1.29-2.759,1.988-4.128s1.42-2.725,2.149-4.057l1.176,2.047c.4.678.843,1.33,1.261,2l1.275,1.987c.43.66.832,1.336,1.3,1.968-1.541.1-3.026.134-4.552.165S132.907,1272.788,131.36,1272.774Z" transform="translate(-111.113 -1069.675)" fill="#e3404a"/>
      <path id="Path_100" data-name="Path 100" d="M166.26,1338.333q.96-2.466,1.974-4.843l1.592,2.236.8,1.121c.274.367.563.721.845,1.079-.866.085-1.746.169-2.62.237Z" transform="translate(-140.634 -1127.955)" fill="#e3404a"/>
      <path id="Path_101" data-name="Path 101" d="M199.18,1363.4c.433-1.452.943-2.928,1.447-4.381s1.031-2.879,1.569-4.291l1.458,1.85c.49.617.959,1.249,1.487,1.833l3.092,3.568Q203.8,1362.811,199.18,1363.4Z" transform="translate(-168.48 -1145.922)" fill="#e3404a"/>
      <path id="Path_102" data-name="Path 102" d="M240.17,1425.364q.617-2.556,1.293-5.045l3.792,3.978Q242.747,1424.864,240.17,1425.364Z" transform="translate(-203.152 -1201.402)" fill="#e3404a"/>
      <path id="Path_103" data-name="Path 103" d="M274.75,1441.385q.826-4.579,1.867-8.956l3.412,3.258.854.815.889.771,1.785,1.541q-2.158.7-4.373,1.351l-2.224.637Z" transform="translate(-232.402 -1211.646)" fill="#e3404a"/>
      <path id="Path_104" data-name="Path 104" d="M320.64,1498.666c.091-.868.185-1.723.293-2.585l.368-2.6,1.037.9,1.079.85,2.158,1.7Q323.148,1497.826,320.64,1498.666Z" transform="translate(-271.219 -1263.286)" fill="#e3404a"/>
      <path id="Path_105" data-name="Path 105" d="M364.41,1512.982q.1-2.312.256-4.586l.174-2.263.236-2.285.925.729.966.681,1.925,1.367,1.924,1.368c.654.438,1.323.853,1.984,1.281-1.367.658-2.762,1.315-4.162,1.936S365.839,1512.409,364.41,1512.982Z" transform="translate(-308.243 -1272.057)" fill="#e3404a"/>
      <path id="Path_106" data-name="Path 106" d="M414.486,1564.606q-.051-2.653-.02-5.256l2.312,1.483,2.383,1.369Q416.864,1563.43,414.486,1564.606Z" transform="translate(-350.573 -1319.003)" fill="#e3404a"/>
      <path id="Path_107" data-name="Path 107" d="M455.19,1570.253c-.294-3.02-.414-6.151-.49-9.163,2.7,1.626,5.527,3.007,8.323,4.445Q459.238,1567.965,455.19,1570.253Z" transform="translate(-384.616 -1320.475)" fill="#e3404a"/>
      <path id="Path_108" data-name="Path 108" d="M507.82,1615.637q-.4-2.6-.711-5.168c1.674.744,3.329,1.531,5.017,2.241C510.706,1613.732,509.286,1614.671,507.82,1615.637Z" transform="translate(-428.948 -1362.243)" fill="#e3404a"/>
      <path id="Path_109" data-name="Path 109" d="M553.834,1618.125q-1-4.564-1.714-9.026l4.391,1.733,4.47,1.516C558.692,1614.306,556.307,1616.241,553.834,1618.125Z" transform="translate(-467.02 -1361.084)" fill="#e3404a"/>
      <path id="Path_110" data-name="Path 110" d="M612.1,1656c-.5-1.68-.976-3.32-1.4-5.009,1.751.535,3.522,1.011,5.281,1.518Q614.089,1654.267,612.1,1656Z" transform="translate(-516.571 -1396.517)" fill="#e3404a"/>
      <path id="Path_111" data-name="Path 111" d="M652.827,1650.808q-.792-2.178-1.512-4.337l-.7-2.158-.652-2.2,1.136.322,1.15.266,2.3.53,2.3.531c.771.165,1.541.284,2.321.429-1.013,1.128-2.053,2.278-3.109,3.375S653.929,1649.733,652.827,1650.808Z" transform="translate(-549.78 -1389.007)" fill="#e3404a"/>
      <path id="Path_112" data-name="Path 112" d="M715.5,1680.8q-1.059-2.429-2.025-4.848l2.7.484c.9.154,1.816.241,2.724.364C717.795,1678.134,716.656,1679.5,715.5,1680.8Z" transform="translate(-603.501 -1417.631)" fill="#e3404a"/>
      <path id="Path_113" data-name="Path 113" d="M760.547,1671.185c-1.441-2.671-2.774-5.5-4.007-8.255,3.115.462,6.264.617,9.4.874Q763.392,1667.5,760.547,1671.185Z" transform="translate(-639.932 -1406.619)" fill="#e3404a"/>
      <path id="Path_114" data-name="Path 114" d="M826.662,1692.645q-1.373-2.247-2.653-4.485l5.492.138Q828.128,1690.472,826.662,1692.645Z" transform="translate(-697.003 -1427.958)" fill="#e3404a"/>
      <path id="Path_115" data-name="Path 115" d="M65.048,823.049l-.14,5.564H62.95l.143-5.654Z" transform="translate(-53.247 -696.115)" fill="#1f1a55"/>
      <path id="Path_116" data-name="Path 116" d="M66.615,779.026l-.422,5.549-1.953-.106.428-5.638Z" transform="translate(-54.338 -658.787)" fill="#e3404a"/>
      <path id="Path_117" data-name="Path 117" d="M70.611,735.3c-.285,1.831-.479,3.677-.726,5.515L67.94,740.6c.251-1.868.449-3.75.738-5.6Z" transform="translate(-57.468 -621.712)" fill="#009a6e"/>
      <path id="Path_118" data-name="Path 118" d="M75.642,699.263l-.979,5.475-1.933-.3.994-5.564Z" transform="translate(-61.52 -591.151)" fill="#1f1a55"/>
      <path id="Path_119" data-name="Path 119" d="M84.088,656.338c-.277.886-.438,1.8-.66,2.7l-.626,2.71-1.913-.411.633-2.753c.227-.914.392-1.85.672-2.743Z" transform="translate(-68.422 -554.754)" fill="#e3404a"/>
      <path id="Path_120" data-name="Path 120" d="M94.916,614.044l-.447,1.316-.384,1.336-.758,2.674-1.887-.516.771-2.719.39-1.358.455-1.338Z" transform="translate(-77.346 -518.889)" fill="#009a6e"/>
      <path id="Path_121" data-name="Path 121" d="M105.623,579.52c-.359.855-.65,1.735-.943,2.62l-.889,2.628-1.86-.6.9-2.677c.3-.894.595-1.788.959-2.657Z" transform="translate(-86.219 -489.613)" fill="#1f1a55"/>
      <path id="Path_122" data-name="Path 122" d="M120.732,538.72c-.8,1.674-1.441,3.415-2.127,5.137l-1.825-.707c.7-1.749,1.347-3.521,2.158-5.221Z" transform="translate(-98.78 -455.017)" fill="#e3404a"/>
      <path id="Path_123" data-name="Path 123" d="M138.115,498.9l-1.269,2.474L135.7,503.91l-1.782-.809,1.164-2.576,1.289-2.515Z" transform="translate(-113.279 -421.25)" fill="#009a6e"/>
      <path id="Path_124" data-name="Path 124" d="M154.214,466.7c-.462.806-.939,1.6-1.375,2.417l-1.265,2.477-1.743-.886,1.289-2.515c.442-.831.933-1.637,1.4-2.457Z" transform="translate(-126.736 -393.954)" fill="#1f1a55"/>
      <path id="Path_125" data-name="Path 125" d="M175.587,429.056l-1.5,2.335c-.51.771-.936,1.6-1.409,2.4l-1.7-.985c.481-.811.914-1.649,1.432-2.437L173.944,428Z" transform="translate(-144.626 -362.031)" fill="#e3404a"/>
      <path id="Path_126" data-name="Path 126" d="M199.086,392.611l-1.612,2.267-.808,1.133-.752,1.17L194.28,396.1l.766-1.188.818-1.151,1.638-2.3Z" transform="translate(-164.335 -331.123)" fill="#009a6e"/>
      <path id="Path_127" data-name="Path 127" d="M220.15,363.561l-1.72,2.187c-.282.367-.581.723-.852,1.1l-.8,1.133-1.583-1.151.818-1.15c.278-.382.58-.744.868-1.116l1.746-2.223Z" transform="translate(-182.022 -306.491)" fill="#1f1a55"/>
      <path id="Path_128" data-name="Path 128" d="M247.264,329.861c-1.2,1.413-2.454,2.784-3.619,4.226l-1.515-1.233c1.184-1.466,2.455-2.859,3.676-4.294Z" transform="translate(-204.81 -277.918)" fill="#e3404a"/>
      <path id="Path_129" data-name="Path 129" d="M276.274,297.683l-3.839,4.029-1.444-1.319,3.9-4.092Z" transform="translate(-229.222 -250.631)" fill="#009a6e"/>
      <path id="Path_130" data-name="Path 130" d="M301.712,272.434l-4.029,3.839-1.383-1.383,4.092-3.9Z" transform="translate(-250.631 -229.222)" fill="#1f1a55"/>
      <path id="Path_131" data-name="Path 131" d="M334.05,243.668c-1.443,1.165-2.813,2.417-4.226,3.619l-1.3-1.461c1.435-1.221,2.828-2.492,4.294-3.676Z" transform="translate(-277.884 -204.827)" fill="#e3404a"/>
      <path id="Path_132" data-name="Path 132" d="M367.971,216.773l-1.133.8c-.376.271-.732.57-1.1.852l-2.187,1.72-1.222-1.527,2.223-1.746c.371-.288.734-.59,1.116-.868l1.151-.818Z" transform="translate(-306.483 -182.022)" fill="#009a6e"/>
      <path id="Path_133" data-name="Path 133" d="M397.181,195.914l-1.17.752-1.133.808-2.267,1.612L391.46,197.5l2.3-1.638,1.151-.818,1.188-.766Z" transform="translate(-331.123 -164.335)" fill="#1f1a55"/>
      <path id="Path_134" data-name="Path 134" d="M433.794,172.7c-.8.473-1.623.9-2.4,1.409l-2.341,1.5L428,173.969l2.378-1.527c.788-.518,1.626-.951,2.437-1.432Z" transform="translate(-362.031 -144.652)" fill="#e3404a"/>
      <path id="Path_135" data-name="Path 135" d="M471.613,151.573l-2.477,1.265c-.817.436-1.611.925-2.417,1.375l-.969-1.7c.82-.462,1.626-.954,2.457-1.4l2.514-1.29Z" transform="translate(-393.962 -126.736)" fill="#009a6e"/>
      <path id="Path_136" data-name="Path 136" d="M503.91,135.7l-2.536,1.145-2.474,1.269-.891-1.743,2.515-1.289,2.576-1.164Z" transform="translate(-421.25 -113.279)" fill="#1f1a55"/>
      <path id="Path_137" data-name="Path 137" d="M543.858,118.63c-1.722.686-3.463,1.324-5.137,2.127l-.791-1.789c1.7-.815,3.471-1.464,5.221-2.158Z" transform="translate(-455.017 -98.806)" fill="#e3404a"/>
      <path id="Path_138" data-name="Path 138" d="M584.769,103.773l-2.634.891c-.879.293-1.759.584-2.62.943l-.684-1.834c.869-.364,1.763-.66,2.657-.959l2.677-.9Z" transform="translate(-489.613 -86.202)" fill="#009a6e"/>
      <path id="Path_139" data-name="Path 139" d="M619.371,93.327l-2.674.758-1.336.384-1.316.447-.6-1.86,1.338-.455,1.358-.39,2.719-.771Z" transform="translate(-518.889 -77.346)" fill="#1f1a55"/>
      <path id="Path_140" data-name="Path 140" d="M661.748,82.8l-2.71.626c-.9.222-1.814.382-2.7.66l-.5-1.891c.9-.281,1.829-.445,2.743-.672l2.753-.635Z" transform="translate(-554.754 -68.422)" fill="#e3404a"/>
      <path id="Path_141" data-name="Path 141" d="M704.737,74.663l-5.475.979-.393-1.917,5.564-.994Z" transform="translate(-591.151 -61.52)" fill="#009a6e"/>
      <path id="Path_142" data-name="Path 142" d="M740.763,69.885c-1.838.247-3.684.441-5.515.726l-.308-1.933c1.86-.29,3.736-.487,5.6-.738Z" transform="translate(-621.661 -57.468)" fill="#1f1a55"/>
      <path id="Path_143" data-name="Path 143" d="M784.574,66.193l-5.549.422-.2-1.947,5.638-.428Z" transform="translate(-658.787 -54.338)" fill="#e3404a"/>
      <path id="Path_144" data-name="Path 144" d="M828.613,64.907l-5.564.14-.089-1.954,5.654-.143Z" transform="translate(-696.115 -53.247)" fill="#009a6e"/>
      <path id="Path_145" data-name="Path 145" d="M802.863,0q2.65,3.818,5.009,7.645c-3.146.1-6.3.08-9.433.391C799.816,5.338,801.288,2.6,802.863,0Z" transform="translate(-675.374)" fill="#e3404a"/>
      <path id="Path_146" data-name="Path 146" d="M756.383,6.4c1.094,1.344,2.165,2.774,3.2,4.162-.912.08-1.83.116-2.737.233l-2.727.347Q755.2,8.775,756.383,6.4Z" transform="translate(-637.885 -5.414)" fill="#e3404a"/>
      <path id="Path_147" data-name="Path 147" d="M694.232,12q1.565,1.7,3.058,3.4,1.5,1.762,2.929,3.545l-2.341.3-2.321.412-2.324.415c-.771.139-1.552.264-2.312.462.495-1.461,1.028-2.858,1.581-4.274S693.629,13.421,694.232,12Z" transform="translate(-584.427 -10.15)" fill="#e3404a"/>
      <path id="Path_148" data-name="Path 148" d="M646.575,26.23q1.91,1.823,3.726,3.671l-2.678.617-1.34.308c-.444.108-.881.245-1.324.367.253-.832.507-1.685.771-2.506Z" transform="translate(-545.551 -22.187)" fill="#e3404a"/>
      <path id="Path_149" data-name="Path 149" d="M593.679,37.35q3.557,3.029,6.837,6.136l-4.547,1.289c-1.5.478-2.982,1-4.47,1.5C592.129,43.333,592.85,40.332,593.679,37.35Z" transform="translate(-500.33 -31.593)" fill="#e3404a"/>
      <path id="Path_150" data-name="Path 150" d="M545.73,59c1.417,1.037,2.784,2.038,4.162,3.14-1.723.617-3.414,1.329-5.122,1.99Q545.207,61.582,545.73,59Z" transform="translate(-460.803 -49.906)" fill="#e3404a"/>
      <path id="Path_151" data-name="Path 151" d="M492.646,78.9c2.62,1.671,5.128,3.342,7.58,5.125-1.452.606-2.873,1.285-4.316,1.924-.711.336-1.446.624-2.139,1l-2.1,1.079q.166-2.269.4-4.569C492.215,81.906,492.427,80.431,492.646,78.9Z" transform="translate(-415.887 -66.739)" fill="#e3404a"/>
      <path id="Path_152" data-name="Path 152" d="M445.253,107.44c1.521.8,3.069,1.714,4.559,2.588-1.648.8-3.224,1.739-4.812,2.651Q445.083,110.082,445.253,107.44Z" transform="translate(-376.411 -90.88)" fill="#e3404a"/>
      <path id="Path_153" data-name="Path 153" d="M401.555,131.36c1.4.652,2.761,1.29,4.129,1.988s2.725,1.42,4.057,2.149l-2.047,1.176c-.68.4-1.33.843-2,1.261l-1.987,1.275c-.66.43-1.336.832-1.968,1.3-.1-1.541-.134-3.026-.165-4.552S401.543,132.907,401.555,131.36Z" transform="translate(-339.657 -111.113)" fill="#e3404a"/>
      <path id="Path_154" data-name="Path 154" d="M354.38,166.26q2.466.96,4.843,1.974l-2.24,1.592-1.121.8c-.367.274-.721.563-1.079.845-.085-.866-.17-1.746-.237-2.62Z" transform="translate(-299.758 -140.634)" fill="#e3404a"/>
      <path id="Path_155" data-name="Path 155" d="M308.26,199.18c1.452.433,2.928.943,4.38,1.447s2.881,1.031,4.291,1.569l-1.85,1.458c-.617.49-1.248.959-1.833,1.487l-3.568,3.092Q308.856,203.8,308.26,199.18Z" transform="translate(-260.747 -168.48)" fill="#e3404a"/>
      <path id="Path_156" data-name="Path 156" d="M266.24,240.17q2.555.617,5.045,1.293l-3.978,3.792Q266.739,242.747,266.24,240.17Z" transform="translate(-225.204 -203.152)" fill="#e3404a"/>
      <path id="Path_157" data-name="Path 157" d="M228.76,274.75q4.578.826,8.955,1.867l-3.258,3.412-.815.854-.771.889-1.541,1.785q-.7-2.158-1.352-4.373l-.637-2.224Z" transform="translate(-193.501 -232.402)" fill="#e3404a"/>
      <path id="Path_158" data-name="Path 158" d="M192.16,320.64c.866.091,1.723.185,2.585.293l2.6.368-.9,1.037-.851,1.079-1.7,2.158Q193,323.148,192.16,320.64Z" transform="translate(-162.542 -271.219)" fill="#e3404a"/>
      <path id="Path_159" data-name="Path 159" d="M156.19,364.41q2.312.1,4.585.256l2.263.174,2.284.236-.729.925-.686.966-1.367,1.925-1.369,1.928c-.438.653-.852,1.322-1.281,1.984-.658-1.367-1.315-2.762-1.936-4.161S156.763,365.837,156.19,364.41Z" transform="translate(-132.116 -308.243)" fill="#e3404a"/>
      <path id="Path_160" data-name="Path 160" d="M125.83,414.486q2.654-.051,5.257-.02l-1.483,2.312-1.37,2.384Q127.009,416.864,125.83,414.486Z" transform="translate(-106.435 -350.573)" fill="#e3404a"/>
      <path id="Path_161" data-name="Path 161" d="M98.75,455.19c3.019-.294,6.151-.414,9.163-.49-1.626,2.7-3.007,5.527-4.445,8.323Q101.037,459.238,98.75,455.19Z" transform="translate(-83.529 -384.616)" fill="#e3404a"/>
      <path id="Path_162" data-name="Path 162" d="M75.3,507.82q2.6-.4,5.168-.711c-.744,1.679-1.531,3.329-2.243,5.017C77.2,510.706,76.265,509.286,75.3,507.82Z" transform="translate(-63.694 -428.948)" fill="#e3404a"/>
      <path id="Path_163" data-name="Path 163" d="M51.63,553.834q4.564-1,9.026-1.714l-1.725,4.391-1.517,4.47Q54.467,557.548,51.63,553.834Z" transform="translate(-43.672 -467.02)" fill="#e3404a"/>
      <path id="Path_164" data-name="Path 164" d="M35.8,612.106c1.68-.5,3.32-.977,5.009-1.406-.536,1.751-1.011,3.522-1.518,5.281Q37.526,614.089,35.8,612.106Z" transform="translate(-30.282 -516.571)" fill="#e3404a"/>
      <path id="Path_165" data-name="Path 165" d="M20.74,652.861q2.178-.792,4.337-1.512l2.158-.7,2.2-.646-.322,1.136-.265,1.15-.53,2.3-.532,2.3c-.165.77-.284,1.541-.428,2.321-1.128-1.013-2.278-2.053-3.376-3.109S21.816,653.963,20.74,652.861Z" transform="translate(-17.543 -549.814)" fill="#e3404a"/>
      <path id="Path_166" data-name="Path 166" d="M11.89,715.5q2.429-1.059,4.847-2.025l-.484,2.7c-.154.9-.24,1.816-.364,2.724C14.553,717.795,13.188,716.656,11.89,715.5Z" transform="translate(-10.057 -603.501)" fill="#e3404a"/>
      <path id="Path_167" data-name="Path 167" d="M2.8,760.547c2.671-1.441,5.5-2.774,8.255-4.007-.462,3.115-.617,6.264-.875,9.4Q6.481,763.392,2.8,760.547Z" transform="translate(-2.368 -639.932)" fill="#e3404a"/>
      <path id="Path_168" data-name="Path 168" d="M2,826.654Q4.25,825.28,6.49,824l-.139,5.492Q4.178,828.12,2,826.654Z" transform="translate(-1.692 -696.995)" fill="#e3404a"/>
      <path id="Path_169" data-name="Path 169" d="M865.206,65.048l-5.566-.14V62.95l5.655.143Z" transform="translate(-727.141 -53.247)" fill="#1f1a55"/>
      <path id="Path_170" data-name="Path 170" d="M908.738,66.615l-5.549-.422.106-1.953,5.638.428Z" transform="translate(-763.978 -54.338)" fill="#e3404a"/>
      <path id="Path_171" data-name="Path 171" d="M952.084,70.611c-1.831-.285-3.678-.479-5.515-.726l.22-1.945c1.868.251,3.744.449,5.6.738Z" transform="translate(-800.672 -57.468)" fill="#009a6e"/>
      <path id="Path_172" data-name="Path 172" d="M987.824,75.642l-5.475-.979.3-1.933,5.564.994Z" transform="translate(-830.937 -61.52)" fill="#1f1a55"/>
      <path id="Path_173" data-name="Path 173" d="M1030.528,84.088c-.885-.277-1.8-.438-2.7-.66l-2.71-.626.41-1.913,2.755.633c.914.227,1.849.392,2.743.672Z" transform="translate(-867.115 -68.422)" fill="#e3404a"/>
      <path id="Path_174" data-name="Path 174" d="M1072.7,94.916l-1.316-.447-1.337-.384-2.674-.758.516-1.887,2.719.771,1.358.39,1.338.455Z" transform="translate(-902.853 -77.346)" fill="#009a6e"/>
      <path id="Path_175" data-name="Path 175" d="M1107.181,105.623c-.855-.359-1.735-.65-2.62-.943l-2.631-.889.6-1.86,2.677.9c.894.3,1.788.595,2.657.959Z" transform="translate(-932.086 -86.219)" fill="#1f1a55"/>
      <path id="Path_176" data-name="Path 176" d="M1148.037,120.732c-1.674-.8-3.416-1.441-5.138-2.127l.708-1.825c1.749.7,3.52,1.347,5.22,2.158Z" transform="translate(-966.741 -98.78)" fill="#e3404a"/>
      <path id="Path_177" data-name="Path 177" d="M1188.009,138.115l-2.474-1.269L1183,135.7l.809-1.782,2.576,1.164,2.515,1.289Z" transform="translate(-1000.66 -113.279)" fill="#009a6e"/>
      <path id="Path_178" data-name="Path 178" d="M1220.393,154.214c-.806-.462-1.6-.939-2.416-1.375l-2.477-1.265.889-1.743,2.517,1.287c.831.444,1.637.934,2.457,1.4Z" transform="translate(-1028.151 -126.736)" fill="#1f1a55"/>
      <path id="Path_179" data-name="Path 179" d="M1258.438,175.587l-2.341-1.5c-.771-.51-1.6-.936-2.4-1.409l.985-1.7c.811.481,1.649.914,2.436,1.432l2.378,1.527Z" transform="translate(-1060.463 -144.626)" fill="#e3404a"/>
      <path id="Path_180" data-name="Path 180" d="M1295.28,199.086l-2.267-1.612-1.133-.808-1.17-.752,1.077-1.634,1.188.766,1.151.818,2.3,1.638Z" transform="translate(-1091.769 -164.335)" fill="#009a6e"/>
      <path id="Path_181" data-name="Path 181" d="M1324.749,220.15l-2.187-1.72c-.366-.282-.723-.581-1.1-.852l-1.133-.8,1.15-1.583,1.153.818c.382.278.745.58,1.116.868l2.233,1.746Z" transform="translate(-1116.824 -182.022)" fill="#1f1a55"/>
      <path id="Path_182" data-name="Path 182" d="M1359.116,247.264c-1.414-1.2-2.784-2.454-4.226-3.619l1.233-1.515c1.466,1.184,2.859,2.455,4.294,3.676Z" transform="translate(-1146.057 -204.81)" fill="#e3404a"/>
      <path id="Path_183" data-name="Path 183" d="M1391.909,276.274l-4.029-3.839,1.319-1.444,4.092,3.9Z" transform="translate(-1173.962 -229.222)" fill="#009a6e"/>
      <path id="Path_184" data-name="Path 184" d="M1417.859,301.712l-3.84-4.029,1.383-1.383,3.9,4.092Z" transform="translate(-1196.072 -250.631)" fill="#1f1a55"/>
      <path id="Path_185" data-name="Path 185" d="M1447.469,334.05c-1.165-1.443-2.417-2.813-3.619-4.226l1.458-1.3c1.221,1.435,2.493,2.828,3.676,4.294Z" transform="translate(-1221.304 -277.884)" fill="#e3404a"/>
      <path id="Path_186" data-name="Path 186" d="M1475.3,367.971l-.8-1.133c-.273-.376-.57-.732-.854-1.1l-1.719-2.187,1.527-1.222,1.746,2.223c.288.371.59.734.868,1.116l.818,1.151Z" transform="translate(-1245.05 -306.483)" fill="#009a6e"/>
      <path id="Path_187" data-name="Path 187" d="M1497,397.181l-.752-1.17-.808-1.133-1.612-2.267,1.583-1.151,1.637,2.3.82,1.151.766,1.188Z" transform="translate(-1263.581 -331.123)" fill="#1f1a55"/>
      <path id="Path_188" data-name="Path 188" d="M1521.331,433.76c-.473-.8-.9-1.623-1.409-2.4l-1.5-2.34,1.643-1.062,1.526,2.378c.519.788.952,1.626,1.433,2.437Z" transform="translate(-1284.381 -361.997)" fill="#e3404a"/>
      <path id="Path_189" data-name="Path 189" d="M1543.66,471.613l-1.266-2.477c-.436-.817-.925-1.611-1.375-2.417l1.7-.969c.462.82.954,1.626,1.4,2.457l1.289,2.515Z" transform="translate(-1303.497 -393.962)" fill="#009a6e"/>
      <path id="Path_190" data-name="Path 190" d="M1560.563,503.91l-1.145-2.536-1.269-2.474,1.743-.891,1.289,2.515,1.164,2.576Z" transform="translate(-1317.988 -421.25)" fill="#1f1a55"/>
      <path id="Path_191" data-name="Path 191" d="M1579,543.858c-.688-1.722-1.324-3.463-2.126-5.137l1.789-.791c.815,1.7,1.464,3.471,2.158,5.221Z" transform="translate(-1333.823 -455.017)" fill="#e3404a"/>
      <path id="Path_192" data-name="Path 192" d="M1595.234,584.735l-.891-2.634c-.293-.879-.584-1.759-.943-2.62l1.83-.69c.364.869.661,1.763.959,2.657l.9,2.677Z" transform="translate(-1347.806 -489.579)" fill="#009a6e"/>
      <path id="Path_193" data-name="Path 193" d="M1606.889,619.371l-.758-2.674-.384-1.336-.447-1.316,1.86-.6.455,1.338.39,1.358.77,2.719Z" transform="translate(-1357.87 -518.889)" fill="#1f1a55"/>
      <path id="Path_194" data-name="Path 194" d="M1618.945,661.748l-.626-2.71c-.222-.9-.382-1.814-.66-2.7l1.891-.5c.281.9.446,1.829.672,2.743l.635,2.753Z" transform="translate(-1368.325 -554.754)" fill="#e3404a"/>
      <path id="Path_195" data-name="Path 195" d="M1628.649,704.737l-.979-5.475,1.917-.393.994,5.564Z" transform="translate(-1376.794 -591.151)" fill="#009a6e"/>
      <path id="Path_196" data-name="Path 196" d="M1634.745,740.763c-.247-1.838-.441-3.684-.726-5.515l1.933-.308c.29,1.86.487,3.736.739,5.6Z" transform="translate(-1382.163 -621.661)" fill="#1f1a55"/>
      <path id="Path_197" data-name="Path 197" d="M1640.062,784.574l-.422-5.549,1.947-.2.428,5.638Z" transform="translate(-1386.917 -658.787)" fill="#e3404a"/>
      <path id="Path_198" data-name="Path 198" d="M1642.861,828.613l-.142-5.564,1.954-.089.145,5.654Z" transform="translate(-1389.523 -696.115)" fill="#009a6e"/>
      <path id="Path_199" data-name="Path 199" d="M1675.186,802.863q-3.817,2.65-7.645,5.009c-.1-3.146-.08-6.3-.392-9.433C1669.849,799.816,1672.589,801.288,1675.186,802.863Z" transform="translate(-1410.186 -675.374)" fill="#e3404a"/>
      <path id="Path_200" data-name="Path 200" d="M1686.87,756.383c-1.344,1.094-2.774,2.165-4.161,3.2-.08-.912-.116-1.83-.233-2.737l-.347-2.727Q1684.5,755.2,1686.87,756.383Z" transform="translate(-1422.858 -637.885)" fill="#e3404a"/>
      <path id="Path_201" data-name="Path 201" d="M1660.439,694.224q-1.7,1.564-3.4,3.058-1.761,1.5-3.545,2.928l-.3-2.341-.416-2.323-.415-2.324c-.139-.771-.263-1.552-.462-2.312,1.461.495,2.857,1.028,4.273,1.581S1659.016,693.621,1660.439,694.224Z" transform="translate(-1397.288 -584.418)" fill="#e3404a"/>
      <path id="Path_202" data-name="Path 202" d="M1665.815,646.575q-1.824,1.91-3.673,3.726l-.617-2.678-.308-1.34c-.108-.444-.245-.881-.367-1.324.832.253,1.685.507,2.507.771Z" transform="translate(-1404.858 -545.551)" fill="#e3404a"/>
      <path id="Path_203" data-name="Path 203" d="M1632.963,593.679q-3.023,3.557-6.136,6.831l-1.288-4.541c-.477-1.5-1-2.982-1.5-4.47C1626.98,592.129,1629.981,592.85,1632.963,593.679Z" transform="translate(-1373.722 -500.33)" fill="#e3404a"/>
      <path id="Path_204" data-name="Path 204" d="M1632.139,545.73c-1.037,1.417-2.038,2.785-3.14,4.162-.616-1.723-1.328-3.414-1.99-5.122Q1629.558,545.207,1632.139,545.73Z" transform="translate(-1376.235 -460.803)" fill="#e3404a"/>
      <path id="Path_205" data-name="Path 205" d="M1590.313,492.646c-1.669,2.62-3.34,5.128-5.124,7.58-.607-1.452-1.285-2.873-1.923-4.316-.336-.711-.624-1.446-1-2.139l-1.079-2.1q2.267.166,4.569.4C1587.309,492.215,1588.783,492.427,1590.313,492.646Z" transform="translate(-1337.476 -415.887)" fill="#e3404a"/>
      <path id="Path_206" data-name="Path 206" d="M1583.09,445.253c-.8,1.521-1.714,3.069-2.588,4.559-.8-1.648-1.738-3.224-2.653-4.812Q1580.447,445.083,1583.09,445.253Z" transform="translate(-1334.652 -376.411)" fill="#e3404a"/>
      <path id="Path_207" data-name="Path 207" d="M1537.693,401.555c-.652,1.4-1.29,2.761-1.988,4.129s-1.419,2.725-2.149,4.057l-1.176-2.047c-.4-.68-.843-1.33-1.261-2l-1.276-1.987c-.43-.66-.832-1.336-1.3-1.968,1.542-.1,3.026-.134,4.552-.165S1536.146,401.543,1537.693,401.555Z" transform="translate(-1292.942 -339.657)" fill="#e3404a"/>
      <path id="Path_208" data-name="Path 208" d="M1524.418,354.38q-.959,2.466-1.975,4.843l-1.592-2.24-.8-1.119c-.274-.367-.562-.721-.844-1.079.866-.085,1.746-.17,2.62-.237Z" transform="translate(-1285.049 -299.758)" fill="#e3404a"/>
      <path id="Path_209" data-name="Path 209" d="M1470.423,308.26c-.433,1.452-.944,2.928-1.447,4.38s-1.031,2.881-1.57,4.291l-1.458-1.85c-.49-.617-.958-1.248-1.487-1.833l-3.091-3.568Q1465.8,308.856,1470.423,308.26Z" transform="translate(-1236.125 -260.747)" fill="#e3404a"/>
      <path id="Path_210" data-name="Path 210" d="M1451.214,266.24q-.616,2.555-1.293,5.045l-3.791-3.978Q1448.639,266.739,1451.214,266.24Z" transform="translate(-1223.234 -225.204)" fill="#e3404a"/>
      <path id="Path_211" data-name="Path 211" d="M1396.181,228.76q-.826,4.578-1.866,8.955l-3.417-3.258-.854-.815-.89-.771-1.785-1.541q2.158-.7,4.373-1.352l2.224-.637Z" transform="translate(-1173.531 -193.501)" fill="#e3404a"/>
      <path id="Path_212" data-name="Path 212" d="M1371.556,192.16c-.092.866-.184,1.723-.293,2.585l-.368,2.6-1.039-.9-1.079-.851-2.158-1.7Q1369.05,193,1371.556,192.16Z" transform="translate(-1155.978 -162.542)" fill="#e3404a"/>
      <path id="Path_213" data-name="Path 213" d="M1308.873,156.19q-.1,2.312-.256,4.585l-.173,2.263-.236,2.284-.925-.729-.961-.686-1.924-1.369-1.924-1.367c-.653-.438-1.322-.852-1.983-1.281,1.367-.658,2.762-1.315,4.162-1.936S1307.444,156.763,1308.873,156.19Z" transform="translate(-1100.041 -132.116)" fill="#e3404a"/>
      <path id="Path_214" data-name="Path 214" d="M1278.974,125.83q.051,2.654.021,5.257l-2.313-1.483-2.383-1.37Q1276.6,127.009,1278.974,125.83Z" transform="translate(-1077.888 -106.435)" fill="#e3404a"/>
      <path id="Path_215" data-name="Path 215" d="M1218.423,98.75c.294,3.019.415,6.151.49,9.163-2.7-1.626-5.527-3.007-8.323-4.445Q1214.374,101.037,1218.423,98.75Z" transform="translate(-1023.999 -83.529)" fill="#e3404a"/>
      <path id="Path_216" data-name="Path 216" d="M1183.936,75.3q.4,2.6.71,5.168c-1.674-.744-3.329-1.531-5.017-2.241C1181.051,77.2,1182.47,76.265,1183.936,75.3Z" transform="translate(-997.81 -63.694)" fill="#e3404a"/>
      <path id="Path_217" data-name="Path 217" d="M1116.827,51.63q1,4.564,1.714,9.026l-4.391-1.725-4.47-1.517Q1113.113,54.467,1116.827,51.63Z" transform="translate(-938.642 -43.672)" fill="#e3404a"/>
      <path id="Path_218" data-name="Path 218" d="M1078.2,35.8c.5,1.68.978,3.32,1.406,5.009-1.751-.536-3.522-1.011-5.28-1.518Q1076.221,37.526,1078.2,35.8Z" transform="translate(-908.74 -30.282)" fill="#e3404a"/>
      <path id="Path_219" data-name="Path 219" d="M1015.965,20.74q.791,2.178,1.512,4.337l.7,2.158.65,2.2-1.128-.325-1.15-.265-2.3-.53-2.3-.532c-.771-.165-1.541-.284-2.321-.428,1.013-1.128,2.053-2.278,3.109-3.376S1014.862,21.816,1015.965,20.74Z" transform="translate(-854.013 -17.543)" fill="#e3404a"/>
      <path id="Path_220" data-name="Path 220" d="M974,11.89q1.059,2.429,2.025,4.847l-2.705-.484c-.9-.154-1.816-.24-2.723-.364C971.7,14.553,972.842,13.188,974,11.89Z" transform="translate(-820.999 -10.057)" fill="#e3404a"/>
      <path id="Path_221" data-name="Path 221" d="M907.145,2.8c1.441,2.671,2.774,5.5,4.007,8.255-3.115-.462-6.264-.617-9.4-.875Q904.3,6.481,907.145,2.8Z" transform="translate(-762.761 -2.368)" fill="#e3404a"/>
      <path id="Path_222" data-name="Path 222" d="M862.481,2q1.376,2.25,2.653,4.49l-5.493-.139Q861.013,4.178,862.481,2Z" transform="translate(-727.141 -1.692)" fill="#e3404a"/>
    </g>
  </g>
</svg>
