<svg version="1.2" xmlns="http://www.w3.org/2000/svg" viewBox="0 0 1947 508" width="1947" height="508">
	<title>heroLine-svg</title>
	<style>
		.s0 { fill: #e43f4a } 
	</style>
	<path id="Path_6" fill-rule="evenodd" class="s0" d="m-15 505.5c19.8-82.5 82.7-119.1 171.6-130.3 104.1-13.1 243.9 8.9 391.7 32.1 341.1 53.6 725.2 114 806.7-237.5 24.4-105.2 118.8-149.1 237.8-148.8 57.7 0.2 121.2 10.7 185.3 29.8q23 6.8 45.7 14.9 22.6 8.1 44.7 17.3 22.2 9.3 43.8 19.6 21.7 10.4 42.8 21.9l-1.2 4.5q-21.1-11.6-42.8-22-21.6-10.4-43.8-19.7-22.2-9.3-44.8-17.4-22.6-8-45.7-14.9c-63.5-18.9-126.4-29.4-183.4-29.5-116.8-0.3-209.2 42.7-233.1 145.6-82.4 355.4-469.1 294.6-812.4 240.6-147.4-23.1-286.7-45-390-32-86.7 10.9-148 46.6-167.5 127.2z"/>
</svg>