<svg xmlns="http://www.w3.org/2000/svg" width="86.888" height="81.3" viewBox="0 0 86.888 81.3">
  <g id="icon" transform="translate(0 -106.7)">
    <ellipse id="Ellipse_6" data-name="Ellipse 6" cx="38.06" cy="21.85" rx="38.06" ry="21.85" transform="matrix(0.788, -0.616, 0.616, 0.788, 0, 153.564)" fill="#fbac18"/>
    <g id="Group_32" data-name="Group 32" transform="translate(46.904 106.703) rotate(48)">
      <path id="Path_272" data-name="Path 272" d="M43.934,18.433A14.971,14.971,0,0,0,36.679,3.271,25.107,25.107,0,0,0,23.905.005c-7.5-.158-13.428,3.177-18.031,8.9C1.829,13.928-.6,19.616.129,26.228c.414,3.757,1.96,7.007,5.713,8.53,3.541,1.438,6.641.2,9.456-2.061,1.08-.868,2.191-1.695,3.327-2.571a6.126,6.126,0,0,1,.729,2.4c.746,3.992.226,7.982-.042,11.973-.14,2.076.208,2.642,2.094,3.456,5.256,2.268,13.221.783,17.447-3.152a5.231,5.231,0,0,0,1.573-5.957c-.945-2.9-2.716-5.329-4.371-7.825-.809-1.22-1.664-2.408-2.528-3.656A28.528,28.528,0,0,0,39.9,24.311,8.487,8.487,0,0,0,43.934,18.433ZM33.711,31.395c1.346,1.984,2.624,4.025,3.777,6.126,1.863,3.394,1.439,4.915-1.824,6.947a16.139,16.139,0,0,1-11.972,2.048,11.259,11.259,0,0,1-1.834-.64c-.542-.206-.521-.686-.482-1.138.059-.7.577-.336.916-.37,1.3-.131,2.623.5,4.107-.088-1.4-.614-2.721-.454-3.968-.719-.387-.082-1.191.366-.975-.566.172-.747-.488-1.907.98-2.122,1.277-.187,2.618.089,3.9-.529-1.415-1.327-2.971-.807-4.5-.44-.541-1.377.119-1.877,1.368-2.141a23.039,23.039,0,0,1,5.293-.291c-2.006-1.9-2.848-1.915-6.814-.191-.1-.762-.2-1.479-.285-2.2a15.3,15.3,0,0,0-.939-3.93c-.754-1.9-.761-1.884,1.267-2.52,2-.628,4.07-.441,6.114-.486,1.4-.031,2.953-.617,4.134-.242S32.94,30.258,33.711,31.395Zm-6.477-5.342a16.044,16.044,0,0,0-12.49,4.4,11.384,11.384,0,0,1-3.493,2.292,5.987,5.987,0,0,1-7.733-2.684,11.6,11.6,0,0,1-1.45-6.2C2.4,9.538,16.514-1.358,30.326,2.49c5.4,1.5,10.133,4.758,11.338,10.864,1.063,5.377.156,7.738-4.806,10.325A17.72,17.72,0,0,1,27.233,26.053Z" fill="#fff"/>
      <path id="Path_273" data-name="Path 273" d="M4.9,1.754A9.643,9.643,0,0,0,0,0C4.285,1.907,6.893,5.361,8.842,9.42a5.759,5.759,0,0,1-.789,6.829A6.689,6.689,0,0,0,6.671,18.4a2.6,2.6,0,0,0,2.605-.717,6.438,6.438,0,0,0,2.093-6.79A17.009,17.009,0,0,0,4.9,1.754Z" transform="translate(27.882 3.614)" fill="#fff"/>
      <path id="Path_274" data-name="Path 274" d="M1.457,0C-.654,2.362-.408,7.945,1.789,9.858a2.159,2.159,0,0,0,2.112.55C3.177,8.764,2.073,7.329,1.676,5.54A15.841,15.841,0,0,1,1.457,0Z" transform="translate(4.619 17.931)" fill="#fff"/>
      <path id="Path_275" data-name="Path 275" d="M2.341,3.77C2.216,2.324,2.06.883.69,0,1.53,2.912.88,5.7,0,8.746A4.819,4.819,0,0,0,2.341,3.77Z" transform="translate(32.952 11.846)" fill="#fff"/>
      <path id="Path_276" data-name="Path 276" d="M1.037,0c1,2.592-.6,4.455-1.037,6.578C2.91,5.212,3.565,1.856,1.037,0Z" transform="translate(29.267 13.481)" fill="#fff"/>
      <path id="Path_277" data-name="Path 277" d="M0,3.475C1.644,2.85,1.838,1.655,1.6,0,.866,1.2.078,2.117,0,3.475Z" transform="translate(25.779 16.148)" fill="#fff"/>
      <path id="Path_278" data-name="Path 278" d="M.744,0A8.512,8.512,0,0,0,.038,1.378,1,1,0,0,0,.548,2.523c.318.2.691.313.949-.006.285-.352.07-.76-.088-1.122S1.07.679.744,0Z" transform="translate(8.07 22.334)" fill="#fff"/>
    </g>
    <g id="Group_32-2" data-name="Group 32" transform="translate(46.904 106.703) rotate(48)">
      <path id="Path_272-2" data-name="Path 272" d="M43.934,18.433A14.971,14.971,0,0,0,36.679,3.271,25.107,25.107,0,0,0,23.905.005c-7.5-.158-13.428,3.177-18.031,8.9C1.829,13.928-.6,19.616.129,26.228c.414,3.757,1.96,7.007,5.713,8.53,3.541,1.438,6.641.2,9.456-2.061,1.08-.868,2.191-1.695,3.327-2.571a6.126,6.126,0,0,1,.729,2.4c.746,3.992.226,7.982-.042,11.973-.14,2.076.208,2.642,2.094,3.456,5.256,2.268,13.221.783,17.447-3.152a5.231,5.231,0,0,0,1.573-5.957c-.945-2.9-2.716-5.329-4.371-7.825-.809-1.22-1.664-2.408-2.528-3.656A28.528,28.528,0,0,0,39.9,24.311,8.487,8.487,0,0,0,43.934,18.433ZM33.711,31.395c1.346,1.984,2.624,4.025,3.777,6.126,1.863,3.394,1.439,4.915-1.824,6.947a16.139,16.139,0,0,1-11.972,2.048,11.259,11.259,0,0,1-1.834-.64c-.542-.206-.521-.686-.482-1.138.059-.7.577-.336.916-.37,1.3-.131,2.623.5,4.107-.088-1.4-.614-2.721-.454-3.968-.719-.387-.082-1.191.366-.975-.566.172-.747-.488-1.907.98-2.122,1.277-.187,2.618.089,3.9-.529-1.415-1.327-2.971-.807-4.5-.44-.541-1.377.119-1.877,1.368-2.141a23.039,23.039,0,0,1,5.293-.291c-2.006-1.9-2.848-1.915-6.814-.191-.1-.762-.2-1.479-.285-2.2a15.3,15.3,0,0,0-.939-3.93c-.754-1.9-.761-1.884,1.267-2.52,2-.628,4.07-.441,6.114-.486,1.4-.031,2.953-.617,4.134-.242S32.94,30.258,33.711,31.395Zm-6.477-5.342a16.044,16.044,0,0,0-12.49,4.4,11.384,11.384,0,0,1-3.493,2.292,5.987,5.987,0,0,1-7.733-2.684,11.6,11.6,0,0,1-1.45-6.2C2.4,9.538,16.514-1.358,30.326,2.49c5.4,1.5,10.133,4.758,11.338,10.864,1.063,5.377.156,7.738-4.806,10.325A17.72,17.72,0,0,1,27.233,26.053Z" fill="#fff"/>
      <path id="Path_273-2" data-name="Path 273" d="M4.9,1.754A9.643,9.643,0,0,0,0,0C4.285,1.907,6.893,5.361,8.842,9.42a5.759,5.759,0,0,1-.789,6.829A6.689,6.689,0,0,0,6.671,18.4a2.6,2.6,0,0,0,2.605-.717,6.438,6.438,0,0,0,2.093-6.79A17.009,17.009,0,0,0,4.9,1.754Z" transform="translate(27.882 3.614)" fill="#fff"/>
      <path id="Path_274-2" data-name="Path 274" d="M1.457,0C-.654,2.362-.408,7.945,1.789,9.858a2.159,2.159,0,0,0,2.112.55C3.177,8.764,2.073,7.329,1.676,5.54A15.841,15.841,0,0,1,1.457,0Z" transform="translate(4.619 17.931)" fill="#fff"/>
      <path id="Path_275-2" data-name="Path 275" d="M2.341,3.77C2.216,2.324,2.06.883.69,0,1.53,2.912.88,5.7,0,8.746A4.819,4.819,0,0,0,2.341,3.77Z" transform="translate(32.952 11.846)" fill="#fff"/>
      <path id="Path_276-2" data-name="Path 276" d="M1.037,0c1,2.592-.6,4.455-1.037,6.578C2.91,5.212,3.565,1.856,1.037,0Z" transform="translate(29.267 13.481)" fill="#fff"/>
      <path id="Path_277-2" data-name="Path 277" d="M0,3.475C1.644,2.85,1.838,1.655,1.6,0,.866,1.2.078,2.117,0,3.475Z" transform="translate(25.779 16.148)" fill="#fff"/>
      <path id="Path_278-2" data-name="Path 278" d="M.744,0A8.512,8.512,0,0,0,.038,1.378,1,1,0,0,0,.548,2.523c.318.2.691.313.949-.006.285-.352.07-.76-.088-1.122S1.07.679.744,0Z" transform="translate(8.07 22.334)" fill="#fff"/>
    </g>
  </g>
</svg>
