<svg xmlns="http://www.w3.org/2000/svg" width="86.888" height="83.248" viewBox="0 0 86.888 83.248">
  <g id="icon" transform="translate(0 -104.752)">
    <ellipse id="Ellipse_6" data-name="Ellipse 6" cx="38.06" cy="21.85" rx="38.06" ry="21.85" transform="matrix(0.788, -0.616, 0.616, 0.788, 0, 153.564)" fill="#fbac18"/>
    <g id="Group_18" data-name="Group 18" transform="translate(11.969 104.752)">
      <path id="Path_384" data-name="Path 384" d="M1129.148,201.337c-.447-1.207-.327-2.57-1.234-3.657a30.221,30.221,0,0,0-12.433-9.048c-2.887-1.118-5.766-2.277-8.908-2.461a3.272,3.272,0,0,0-2.105.333c-5.025,3.175-9.976,6.461-14.8,9.936-8.622,6.216-17.433,12.2-25.073,19.668-.146.143-.395.386-.49.344-.672-.294-.434.182-.411.457a4.667,4.667,0,0,0,.109.613,147.2,147.2,0,0,0,6.5,20.7,1.626,1.626,0,0,0,1.325,1.152,20.918,20.918,0,0,0,3.929.449,80.045,80.045,0,0,0,14.784-1.791,174.641,174.641,0,0,0,18.951-5.066q2.045-.63,4.068-1.327c.353-.122.918-.212.646-.828a5.273,5.273,0,0,1-.062-2.936,3.15,3.15,0,0,1,2.179,1.96,1.468,1.468,0,0,0,1.892,1.01,33.455,33.455,0,0,0,5.314-1.508c3.444-1.407,6.864-2.878,10.427-3.976,1.157-.357,1.277-.613.949-1.851-1.227-4.644-2.549-9.263-3.528-13.969A56.328,56.328,0,0,0,1129.148,201.337Zm-54.815,7.428c10.018-7.322,20.282-14.289,30.5-21.318a3.254,3.254,0,0,1,3.068-.586c6.966,2.186,13.414,5.224,18.3,10.91.59.686.526.876-.314,1.165-8.559,2.945-17.226,5.55-25.868,8.229-6.981,2.165-13.92,4.471-21.01,6.275-4.287,1.091-8.623,1.94-12.977,2.709-.271.048-.548.058-1.045.109A99.249,99.249,0,0,1,1074.333,208.765Zm54.469-5.148a136.222,136.222,0,0,0,4.321,19.448c.207.736.137,1.056-.666,1.313-3.614,1.154-7.076,2.718-10.614,4.076-.648.249-1.322.431-1.989.628-1.314.387-2.3.559-3.321-.989-1.628-2.464-4.622-1.9-5.383,1.034-.486,1.875-1.566,2.334-3.106,2.828A155.419,155.419,0,0,1,1088.656,237a72.975,72.975,0,0,1-12.829,1.5,28.807,28.807,0,0,1-3.42-.316,1.456,1.456,0,0,1-1.308-1.107q-3.719-9.532-6.823-19.279c-.237-.751.121-.828.648-.9,2.308-.319,4.621-.6,6.923-.96a159.664,159.664,0,0,0,22.465-5.634q11.826-3.642,23.646-7.3a97.26,97.26,0,0,0,10.047-3.711A34.736,34.736,0,0,1,1128.8,203.617Z" transform="translate(-1063.638 -186.142)" fill="#fff"/>
      <path id="Path_385" data-name="Path 385" d="M1091.2,227.755a4.028,4.028,0,0,0-5.177,2.769,7.378,7.378,0,0,0-.057,4.83,10.62,10.62,0,0,0,2.369,4.769,5.4,5.4,0,0,0,2.293,1.575,4.1,4.1,0,0,0,4.609-1.574A7.929,7.929,0,0,0,1091.2,227.755Zm-2.875,1.364c.2,1.142-.735,1.211-1.469,1.7C1087.151,229.934,1087.467,229.3,1088.322,229.119Zm-.269,1.359c.773,1.695-1.14,2.251-1.511,3.484A2.7,2.7,0,0,1,1088.053,230.478Zm-1.04,3.352c.326-.482.682-.943,1.034-1.427.576,1.079.54,1.371-.1,2.239a3.27,3.27,0,0,0-.8,1.858A1.946,1.946,0,0,1,1087.014,233.83Zm.153,2.7,1.416-2.187c.982,1.554-1.02,2.159-.69,3.556A1.473,1.473,0,0,1,1087.166,236.528Zm2.779,3.863c-2.262-1.363-2.42-2.093-.849-4.651C1089.741,237.314,1091.293,238.585,1089.946,240.391Zm1.615.546c-1.431-.049-1.479-.191-.67-2.012a1.356,1.356,0,0,1,.829,1.764c.4-1.059,1.134-.532,1.9-.357A2.1,2.1,0,0,1,1091.561,240.936Zm4.112-5.337a7.336,7.336,0,0,1-.49,2.549c-.442,1.154-1.031,1.4-2.182.917a4.7,4.7,0,0,1-2.009-1.916,12.95,12.95,0,0,1-1.811-3.97,10.484,10.484,0,0,1-.375-3.2c.021-.849.362-1.134,1.228-1.042A6.836,6.836,0,0,1,1095.673,235.6Z" transform="translate(-1069.244 -196.726)" fill="#fff"/>
      <path id="Path_386" data-name="Path 386" d="M1132.016,213.59c-2.985,3.041-1.336,8.525,1.424,10.149a4.177,4.177,0,0,0,4.948-.305,6.462,6.462,0,0,0-1.078-10.7A4.111,4.111,0,0,0,1132.016,213.59Zm.689.663c.07.872.07.872-1.745,3.35C1130.7,216.088,1131.1,215.318,1132.705,214.253Zm-1.2,3.209a18.849,18.849,0,0,0,1.135-1.639,2.258,2.258,0,0,1-.224,2.081,4.177,4.177,0,0,0-.881,2.271A1.988,1.988,0,0,1,1131.509,217.462Zm.034,2.725q.639-1.042,1.285-2.1c1.113,1.392-.07,2.432-.509,3.67A2.042,2.042,0,0,1,1131.543,220.187Zm2,2.852c-.4-.291-1.214-.455-.77-1.31.223-.428.385-.888.574-1.334l.283.11c.136.686,1.078,1.129.568,2C1134.054,222.741,1134.154,223.482,1133.541,223.039Zm1.817.5c-.2.337-.617.135-.832-.008-.614-.406.275-.613.184-1.01C1134.993,222.866,1135.7,222.955,1135.357,223.54Zm1.424-9.675a5.881,5.881,0,0,1,2.789,3.574,5.636,5.636,0,0,1-1.623,5.284.882.882,0,0,1-1.351.08,5.893,5.893,0,0,1-1.78-2.146,13.716,13.716,0,0,1-1.456-6.03,1.018,1.018,0,0,1,.913-1.155A3.4,3.4,0,0,1,1136.782,213.865Z" transform="translate(-1080.701 -192.781)" fill="#fff"/>
      <path id="Path_387" data-name="Path 387" d="M1079.814,249.7c-.524.051-.638.464-.526.94.174.8.939,1.6,1.418,1.435.568-.2.518-.705.4-1.139C1080.923,250.294,1080.67,249.62,1079.814,249.7Zm.7,2.059c-.409.031-.655-.348-.818-.7-.129-.276-.085-.651.239-.667.441-.022.552.434.7.78C1080.646,251.391,1080.885,251.735,1080.511,251.762Z" transform="translate(-1067.626 -202.378)" fill="#fff"/>
      <path id="Path_388" data-name="Path 388" d="M1124.365,217.779l3.417.581A3.629,3.629,0,0,0,1124.365,217.779Z" transform="translate(-1079.152 -194.171)" fill="#fff"/>
      <path id="Path_389" data-name="Path 389" d="M1152.468,232.85c.425-.171.427-.576.348-.972-.095-.3-.206-.751-.558-.59-.436.2-.166.766-.261,1.163A.36.36,0,0,0,1152.468,232.85Z" transform="translate(-1086.21 -197.667)" fill="#fff"/>
      <path id="Path_390" data-name="Path 390" d="M1138.45,197.94c-1.97-2.988-13.122-9.23-16.945-9.51a66.618,66.618,0,0,1,8.745,4.242C1133.04,194.2,1135.574,196.144,1138.45,197.94Z" transform="translate(-1078.422 -186.726)" fill="#fff"/>
      <path id="Path_391" data-name="Path 391" d="M1124.646,191.721a1.105,1.105,0,0,0-.832-.315,1.169,1.169,0,0,0,.777.421,6.954,6.954,0,0,0,.595.4,81.64,81.64,0,0,1,10.239,6.247c.224.165.444.336.678.485.2.127.416.228.625.339A33.837,33.837,0,0,0,1124.646,191.721Z" transform="translate(-1079.011 -187.486)" fill="#fff"/>
      <path id="Path_392" data-name="Path 392" d="M1129.493,196.815l7.068,4.53A19.729,19.729,0,0,0,1129.493,196.815Z" transform="translate(-1080.462 -188.868)" fill="#fff"/>
      <path id="Path_393" data-name="Path 393" d="M1129.262,199.474l5.1,3.545A10.563,10.563,0,0,0,1129.262,199.474Z" transform="translate(-1080.403 -189.548)" fill="#fff"/>
      <path id="Path_394" data-name="Path 394" d="M1089.913,215.4c.452-.272,1.084-.549,1.031-1.292-.025-.349-.437-.422-.763-.293-.606.24-1.132.619-1.1,1.333C1089.095,215.581,1089.5,215.516,1089.913,215.4Z" transform="translate(-1070.137 -193.198)" fill="#fff"/>
      <path id="Path_395" data-name="Path 395" d="M1128.7,201.5a29.159,29.159,0,0,0,3.774,2.9C1131.574,202.7,1130.036,202.219,1128.7,201.5Z" transform="translate(-1080.26 -190.066)" fill="#fff"/>
      <path id="Path_396" data-name="Path 396" d="M1119.339,195.411a1.171,1.171,0,0,0,.765-1.07c-.176-.346-.439-.512-.764-.346a1.274,1.274,0,0,0-.638,1.2C1118.7,195.558,1119.086,195.53,1119.339,195.411Z" transform="translate(-1077.705 -188.131)" fill="#fff"/>
      <path id="Path_397" data-name="Path 397" d="M1128.041,203.9a6.723,6.723,0,0,0,2.112,1.671A3.627,3.627,0,0,0,1128.041,203.9Z" transform="translate(-1080.091 -190.678)" fill="#fff"/>
      <path id="Path_398" data-name="Path 398" d="M1090.26,242.359c.178-.373.454-.608.294-1.005A.864.864,0,0,0,1090.26,242.359Z" transform="translate(-1070.428 -200.247)" fill="#fff"/>
    </g>
    <g id="Group_18-2" data-name="Group 18" transform="translate(11.969 104.752)">
      <path id="Path_384-2" data-name="Path 384" d="M1129.148,201.337c-.447-1.207-.327-2.57-1.234-3.657a30.221,30.221,0,0,0-12.433-9.048c-2.887-1.118-5.766-2.277-8.908-2.461a3.272,3.272,0,0,0-2.105.333c-5.025,3.175-9.976,6.461-14.8,9.936-8.622,6.216-17.433,12.2-25.073,19.668-.146.143-.395.386-.49.344-.672-.294-.434.182-.411.457a4.667,4.667,0,0,0,.109.613,147.2,147.2,0,0,0,6.5,20.7,1.626,1.626,0,0,0,1.325,1.152,20.918,20.918,0,0,0,3.929.449,80.045,80.045,0,0,0,14.784-1.791,174.641,174.641,0,0,0,18.951-5.066q2.045-.63,4.068-1.327c.353-.122.918-.212.646-.828a5.273,5.273,0,0,1-.062-2.936,3.15,3.15,0,0,1,2.179,1.96,1.468,1.468,0,0,0,1.892,1.01,33.455,33.455,0,0,0,5.314-1.508c3.444-1.407,6.864-2.878,10.427-3.976,1.157-.357,1.277-.613.949-1.851-1.227-4.644-2.549-9.263-3.528-13.969A56.328,56.328,0,0,0,1129.148,201.337Zm-54.815,7.428c10.018-7.322,20.282-14.289,30.5-21.318a3.254,3.254,0,0,1,3.068-.586c6.966,2.186,13.414,5.224,18.3,10.91.59.686.526.876-.314,1.165-8.559,2.945-17.226,5.55-25.868,8.229-6.981,2.165-13.92,4.471-21.01,6.275-4.287,1.091-8.623,1.94-12.977,2.709-.271.048-.548.058-1.045.109A99.249,99.249,0,0,1,1074.333,208.765Zm54.469-5.148a136.222,136.222,0,0,0,4.321,19.448c.207.736.137,1.056-.666,1.313-3.614,1.154-7.076,2.718-10.614,4.076-.648.249-1.322.431-1.989.628-1.314.387-2.3.559-3.321-.989-1.628-2.464-4.622-1.9-5.383,1.034-.486,1.875-1.566,2.334-3.106,2.828A155.419,155.419,0,0,1,1088.656,237a72.975,72.975,0,0,1-12.829,1.5,28.807,28.807,0,0,1-3.42-.316,1.456,1.456,0,0,1-1.308-1.107q-3.719-9.532-6.823-19.279c-.237-.751.121-.828.648-.9,2.308-.319,4.621-.6,6.923-.96a159.664,159.664,0,0,0,22.465-5.634q11.826-3.642,23.646-7.3a97.26,97.26,0,0,0,10.047-3.711A34.736,34.736,0,0,1,1128.8,203.617Z" transform="translate(-1063.638 -186.142)" fill="#fff"/>
      <path id="Path_385-2" data-name="Path 385" d="M1091.2,227.755a4.028,4.028,0,0,0-5.177,2.769,7.378,7.378,0,0,0-.057,4.83,10.62,10.62,0,0,0,2.369,4.769,5.4,5.4,0,0,0,2.293,1.575,4.1,4.1,0,0,0,4.609-1.574A7.929,7.929,0,0,0,1091.2,227.755Zm-2.875,1.364c.2,1.142-.735,1.211-1.469,1.7C1087.151,229.934,1087.467,229.3,1088.322,229.119Zm-.269,1.359c.773,1.695-1.14,2.251-1.511,3.484A2.7,2.7,0,0,1,1088.053,230.478Zm-1.04,3.352c.326-.482.682-.943,1.034-1.427.576,1.079.54,1.371-.1,2.239a3.27,3.27,0,0,0-.8,1.858A1.946,1.946,0,0,1,1087.014,233.83Zm.153,2.7,1.416-2.187c.982,1.554-1.02,2.159-.69,3.556A1.473,1.473,0,0,1,1087.166,236.528Zm2.779,3.863c-2.262-1.363-2.42-2.093-.849-4.651C1089.741,237.314,1091.293,238.585,1089.946,240.391Zm1.615.546c-1.431-.049-1.479-.191-.67-2.012a1.356,1.356,0,0,1,.829,1.764c.4-1.059,1.134-.532,1.9-.357A2.1,2.1,0,0,1,1091.561,240.936Zm4.112-5.337a7.336,7.336,0,0,1-.49,2.549c-.442,1.154-1.031,1.4-2.182.917a4.7,4.7,0,0,1-2.009-1.916,12.95,12.95,0,0,1-1.811-3.97,10.484,10.484,0,0,1-.375-3.2c.021-.849.362-1.134,1.228-1.042A6.836,6.836,0,0,1,1095.673,235.6Z" transform="translate(-1069.244 -196.726)" fill="#fff"/>
      <path id="Path_386-2" data-name="Path 386" d="M1132.016,213.59c-2.985,3.041-1.336,8.525,1.424,10.149a4.177,4.177,0,0,0,4.948-.305,6.462,6.462,0,0,0-1.078-10.7A4.111,4.111,0,0,0,1132.016,213.59Zm.689.663c.07.872.07.872-1.745,3.35C1130.7,216.088,1131.1,215.318,1132.705,214.253Zm-1.2,3.209a18.849,18.849,0,0,0,1.135-1.639,2.258,2.258,0,0,1-.224,2.081,4.177,4.177,0,0,0-.881,2.271A1.988,1.988,0,0,1,1131.509,217.462Zm.034,2.725q.639-1.042,1.285-2.1c1.113,1.392-.07,2.432-.509,3.67A2.042,2.042,0,0,1,1131.543,220.187Zm2,2.852c-.4-.291-1.214-.455-.77-1.31.223-.428.385-.888.574-1.334l.283.11c.136.686,1.078,1.129.568,2C1134.054,222.741,1134.154,223.482,1133.541,223.039Zm1.817.5c-.2.337-.617.135-.832-.008-.614-.406.275-.613.184-1.01C1134.993,222.866,1135.7,222.955,1135.357,223.54Zm1.424-9.675a5.881,5.881,0,0,1,2.789,3.574,5.636,5.636,0,0,1-1.623,5.284.882.882,0,0,1-1.351.08,5.893,5.893,0,0,1-1.78-2.146,13.716,13.716,0,0,1-1.456-6.03,1.018,1.018,0,0,1,.913-1.155A3.4,3.4,0,0,1,1136.782,213.865Z" transform="translate(-1080.701 -192.781)" fill="#fff"/>
      <path id="Path_387-2" data-name="Path 387" d="M1079.814,249.7c-.524.051-.638.464-.526.94.174.8.939,1.6,1.418,1.435.568-.2.518-.705.4-1.139C1080.923,250.294,1080.67,249.62,1079.814,249.7Zm.7,2.059c-.409.031-.655-.348-.818-.7-.129-.276-.085-.651.239-.667.441-.022.552.434.7.78C1080.646,251.391,1080.885,251.735,1080.511,251.762Z" transform="translate(-1067.626 -202.378)" fill="#fff"/>
      <path id="Path_388-2" data-name="Path 388" d="M1124.365,217.779l3.417.581A3.629,3.629,0,0,0,1124.365,217.779Z" transform="translate(-1079.152 -194.171)" fill="#fff"/>
      <path id="Path_389-2" data-name="Path 389" d="M1152.468,232.85c.425-.171.427-.576.348-.972-.095-.3-.206-.751-.558-.59-.436.2-.166.766-.261,1.163A.36.36,0,0,0,1152.468,232.85Z" transform="translate(-1086.21 -197.667)" fill="#fff"/>
      <path id="Path_390-2" data-name="Path 390" d="M1138.45,197.94c-1.97-2.988-13.122-9.23-16.945-9.51a66.618,66.618,0,0,1,8.745,4.242C1133.04,194.2,1135.574,196.144,1138.45,197.94Z" transform="translate(-1078.422 -186.726)" fill="#fff"/>
      <path id="Path_391-2" data-name="Path 391" d="M1124.646,191.721a1.105,1.105,0,0,0-.832-.315,1.169,1.169,0,0,0,.777.421,6.954,6.954,0,0,0,.595.4,81.64,81.64,0,0,1,10.239,6.247c.224.165.444.336.678.485.2.127.416.228.625.339A33.837,33.837,0,0,0,1124.646,191.721Z" transform="translate(-1079.011 -187.486)" fill="#fff"/>
      <path id="Path_392-2" data-name="Path 392" d="M1129.493,196.815l7.068,4.53A19.729,19.729,0,0,0,1129.493,196.815Z" transform="translate(-1080.462 -188.868)" fill="#fff"/>
      <path id="Path_393-2" data-name="Path 393" d="M1129.262,199.474l5.1,3.545A10.563,10.563,0,0,0,1129.262,199.474Z" transform="translate(-1080.403 -189.548)" fill="#fff"/>
      <path id="Path_394-2" data-name="Path 394" d="M1089.913,215.4c.452-.272,1.084-.549,1.031-1.292-.025-.349-.437-.422-.763-.293-.606.24-1.132.619-1.1,1.333C1089.095,215.581,1089.5,215.516,1089.913,215.4Z" transform="translate(-1070.137 -193.198)" fill="#fff"/>
      <path id="Path_395-2" data-name="Path 395" d="M1128.7,201.5a29.159,29.159,0,0,0,3.774,2.9C1131.574,202.7,1130.036,202.219,1128.7,201.5Z" transform="translate(-1080.26 -190.066)" fill="#fff"/>
      <path id="Path_396-2" data-name="Path 396" d="M1119.339,195.411a1.171,1.171,0,0,0,.765-1.07c-.176-.346-.439-.512-.764-.346a1.274,1.274,0,0,0-.638,1.2C1118.7,195.558,1119.086,195.53,1119.339,195.411Z" transform="translate(-1077.705 -188.131)" fill="#fff"/>
      <path id="Path_397-2" data-name="Path 397" d="M1128.041,203.9a6.723,6.723,0,0,0,2.112,1.671A3.627,3.627,0,0,0,1128.041,203.9Z" transform="translate(-1080.091 -190.678)" fill="#fff"/>
      <path id="Path_398-2" data-name="Path 398" d="M1090.26,242.359c.178-.373.454-.608.294-1.005A.864.864,0,0,0,1090.26,242.359Z" transform="translate(-1070.428 -200.247)" fill="#fff"/>
    </g>
  </g>
</svg>
