<svg xmlns="http://www.w3.org/2000/svg" width="86.888" height="81.3" viewBox="0 0 86.888 81.3">
  <g id="icon" transform="translate(0 -106.7)">
    <ellipse id="Ellipse_6" data-name="Ellipse 6" cx="38.06" cy="21.85" rx="38.06" ry="21.85" transform="matrix(0.788, -0.616, 0.616, 0.788, 0, 153.564)" fill="#fbac18"/>
    <path id="Path_401" data-name="Path 401" d="M670.327,95.723a7.645,7.645,0,0,1-2.869.114c-6.421-.8-13.374,5.591-14.358,11.351a3.576,3.576,0,0,0,1.285,3.749c1.35.8,2.545.3,3.678-.514a25.618,25.618,0,0,0,3.463-3.494,9.512,9.512,0,0,1,2.793-2.244c.345-.162.768-.517,1.1-.174.347.36-.063.732-.262,1.057-.668,1.094-1.371,2.167-2.019,3.273-.743,1.27-.723,2.375-.006,2.982.758.642,1.884.432,3.008-.616a8.564,8.564,0,0,0,2.118-3.034,25.641,25.641,0,0,1,3.978-7.239,3.422,3.422,0,0,1,1.146-1.036c.871-.388,1.213-.17,1.111.775a13.723,13.723,0,0,1-.827,3.012,6.021,6.021,0,0,0-.292,3.079,2.51,2.51,0,0,0,2.21,2.21,2.7,2.7,0,0,0,2.9-1.68,5.764,5.764,0,0,0,.38-2.357c0-.463.03-.926.047-1.388a19.4,19.4,0,0,0,.9,2.668,2.784,2.784,0,0,0,3.068,1.6,2.669,2.669,0,0,0,2.257-2.605,12.5,12.5,0,0,0-.3-4.179,3.114,3.114,0,0,1-.172-1.558,6.307,6.307,0,0,0,3.922,3.113,2.707,2.707,0,0,0,3.468-2.537,6.426,6.426,0,0,0-.861-4.159c-.937-1.542-1.824-3.116-2.76-4.658-.431-.711-.49-1.251.439-1.565a3.252,3.252,0,0,0,.622-.363c5.255-3.244,10.351-6.756,15.892-9.52q10.234-5.107,20.484-10.181c.446-.222,1-.32,1.005-1.022a6.714,6.714,0,0,0-2.444-5.633,2.43,2.43,0,0,0-2.7-.425c-1.274.589-2.563,1.154-3.8,1.813-6.388,3.4-11.769,8.185-17.311,12.742-3.252,2.674-6.368,5.551-10.174,7.437a7.166,7.166,0,0,1-7.274-.11,13.4,13.4,0,0,0-7.037-2.2c-1.032.012-2.2,0-2.8,1.039-.654,1.148-.16,2.269.486,3.277.449.7.987,1.342,1.608,2.174a5.884,5.884,0,0,1-3.057-.789c-2.014-.944-4.043-1.847-6.343-.986a3.327,3.327,0,0,0-2.347,2.773c-.007,1.091.86,2.006,2.387,2.523,1.71.579,3.432,1.118,5.19,1.542.934.225,1,.624.325,1.305A2.625,2.625,0,0,1,670.327,95.723Zm17.486-9.815a5.954,5.954,0,0,0,3.47-.774,50.331,50.331,0,0,0,9.669-6.688,207.776,207.776,0,0,1,19.516-14.632c1.651-1.053,2.5-.946,3.655.61a6.3,6.3,0,0,1,.976,1.922c.634,2.089.283,2.816-1.757,3.475a40.7,40.7,0,0,0-5.735,2.483c-6.984,3.511-14.126,6.734-20.647,11.1-2.4,1.605-4.748,3.281-7.087,4.972a7.19,7.19,0,0,1-3.9,1.664,11.634,11.634,0,0,0-2.34.61c.4-1.5,2.546-2.431,1.348-4.416A6.914,6.914,0,0,1,687.813,85.908ZM671.5,92.527c-1.778-.484-3.557-.961-5.334-1.448-.686-.189-1.359-.5-1.4-1.287a1.807,1.807,0,0,1,1.175-1.679,5.2,5.2,0,0,1,4.634.116,15.4,15.4,0,0,0,3.919,1.486,5.212,5.212,0,0,0,1.07.1c.844-.049,1.138-.518.851-1.306a7.889,7.889,0,0,0-1.346-1.976c-.587-.775-1.3-1.68-.848-2.609s1.613-.694,2.513-.654a15.421,15.421,0,0,1,5.906,1.891c.288.137.567.3.861.424a1.521,1.521,0,0,1,.7,2.543c-.364.525-.783,1.016-1.1,1.567-.829,1.456-1.688,2.507-3.734,2.136-1.876-.34-3.688.464-5.38,1.41.294.46.678-.025.967.156a27.258,27.258,0,0,1,5.344-.8c-1.971,1.671-4.165,2.736-5.6,4.979,2.409-1.333,4.349-2.953,6.655-4.477a14.073,14.073,0,0,0-.877,4.454,13.2,13.2,0,0,0,1.393-4.047,1.953,1.953,0,0,1,2.019-1.935,9.691,9.691,0,0,0,3.666-1.126,3.886,3.886,0,0,0,.742,3.119c.6.95,1.157,1.925,1.746,2.882a5.223,5.223,0,0,1,.8,2.856c-.008.735-.007,1.5-.742,1.91a2.164,2.164,0,0,1-2.285-.2,5.389,5.389,0,0,1-1.894-1.815c-.285-.483-.572-.966-.87-1.442-.286-.458-.624-.881-1.247-.727-.64.157-.706.746-.744,1.249a11.082,11.082,0,0,0,.367,3.094,12.42,12.42,0,0,1,.248,3.465c-.054.741-.228,1.384-1.065,1.516a1.435,1.435,0,0,1-1.625-1.129,8.242,8.242,0,0,1-.349-1.638c-.121-.873-.172-1.755-.3-2.626-.114-.767-.466-1.43-1.33-1.474-.908-.045-1.215.674-1.386,1.4a20.792,20.792,0,0,0-.334,4.3c-.017.8.021,1.646-.83,2.114a.919.919,0,0,1-1.129-.075,2.311,2.311,0,0,1-.376-2.377,19.689,19.689,0,0,0,.933-4.215c.061-1.846-1.226-2.739-2.912-2.022a4.04,4.04,0,0,0-1.6,1.243,23.247,23.247,0,0,0-3.856,6.752,8.768,8.768,0,0,1-2.184,3.554c-.358.337-.831.95-1.286.572-.412-.341.048-.968.29-1.391.537-.938,1.148-1.834,1.723-2.75a6.806,6.806,0,0,0,.477-.833,1.933,1.933,0,0,0-.054-2.26c-.642-.709-1.457-.523-2.236-.235a9.564,9.564,0,0,0-3.56,2.6,27.576,27.576,0,0,1-3.445,3.509c-.628.462-1.32.928-2.088.466a2,2,0,0,1-.8-2.124,8.09,8.09,0,0,1,1.321-3.713c2.839-4.164,6.367-7.214,11.858-6.842,2.077.141,4.131.123,5.54-1.815C673.646,93.5,673.387,93.042,671.5,92.527Z" transform="translate(-649.794 49.301)" fill="#fff"/>
    <path id="Path_401-2" data-name="Path 401" d="M670.327,95.723a7.645,7.645,0,0,1-2.869.114c-6.421-.8-13.374,5.591-14.358,11.351a3.576,3.576,0,0,0,1.285,3.749c1.35.8,2.545.3,3.678-.514a25.618,25.618,0,0,0,3.463-3.494,9.512,9.512,0,0,1,2.793-2.244c.345-.162.768-.517,1.1-.174.347.36-.063.732-.262,1.057-.668,1.094-1.371,2.167-2.019,3.273-.743,1.27-.723,2.375-.006,2.982.758.642,1.884.432,3.008-.616a8.564,8.564,0,0,0,2.118-3.034,25.641,25.641,0,0,1,3.978-7.239,3.422,3.422,0,0,1,1.146-1.036c.871-.388,1.213-.17,1.111.775a13.723,13.723,0,0,1-.827,3.012,6.021,6.021,0,0,0-.292,3.079,2.51,2.51,0,0,0,2.21,2.21,2.7,2.7,0,0,0,2.9-1.68,5.764,5.764,0,0,0,.38-2.357c0-.463.03-.926.047-1.388a19.4,19.4,0,0,0,.9,2.668,2.784,2.784,0,0,0,3.068,1.6,2.669,2.669,0,0,0,2.257-2.605,12.5,12.5,0,0,0-.3-4.179,3.114,3.114,0,0,1-.172-1.558,6.307,6.307,0,0,0,3.922,3.113,2.707,2.707,0,0,0,3.468-2.537,6.426,6.426,0,0,0-.861-4.159c-.937-1.542-1.824-3.116-2.76-4.658-.431-.711-.49-1.251.439-1.565a3.252,3.252,0,0,0,.622-.363c5.255-3.244,10.351-6.756,15.892-9.52q10.234-5.107,20.484-10.181c.446-.222,1-.32,1.005-1.022a6.714,6.714,0,0,0-2.444-5.633,2.43,2.43,0,0,0-2.7-.425c-1.274.589-2.563,1.154-3.8,1.813-6.388,3.4-11.769,8.185-17.311,12.742-3.252,2.674-6.368,5.551-10.174,7.437a7.166,7.166,0,0,1-7.274-.11,13.4,13.4,0,0,0-7.037-2.2c-1.032.012-2.2,0-2.8,1.039-.654,1.148-.16,2.269.486,3.277.449.7.987,1.342,1.608,2.174a5.884,5.884,0,0,1-3.057-.789c-2.014-.944-4.043-1.847-6.343-.986a3.327,3.327,0,0,0-2.347,2.773c-.007,1.091.86,2.006,2.387,2.523,1.71.579,3.432,1.118,5.19,1.542.934.225,1,.624.325,1.305A2.625,2.625,0,0,1,670.327,95.723Zm17.486-9.815a5.954,5.954,0,0,0,3.47-.774,50.331,50.331,0,0,0,9.669-6.688,207.776,207.776,0,0,1,19.516-14.632c1.651-1.053,2.5-.946,3.655.61a6.3,6.3,0,0,1,.976,1.922c.634,2.089.283,2.816-1.757,3.475a40.7,40.7,0,0,0-5.735,2.483c-6.984,3.511-14.126,6.734-20.647,11.1-2.4,1.605-4.748,3.281-7.087,4.972a7.19,7.19,0,0,1-3.9,1.664,11.634,11.634,0,0,0-2.34.61c.4-1.5,2.546-2.431,1.348-4.416A6.914,6.914,0,0,1,687.813,85.908ZM671.5,92.527c-1.778-.484-3.557-.961-5.334-1.448-.686-.189-1.359-.5-1.4-1.287a1.807,1.807,0,0,1,1.175-1.679,5.2,5.2,0,0,1,4.634.116,15.4,15.4,0,0,0,3.919,1.486,5.212,5.212,0,0,0,1.07.1c.844-.049,1.138-.518.851-1.306a7.889,7.889,0,0,0-1.346-1.976c-.587-.775-1.3-1.68-.848-2.609s1.613-.694,2.513-.654a15.421,15.421,0,0,1,5.906,1.891c.288.137.567.3.861.424a1.521,1.521,0,0,1,.7,2.543c-.364.525-.783,1.016-1.1,1.567-.829,1.456-1.688,2.507-3.734,2.136-1.876-.34-3.688.464-5.38,1.41.294.46.678-.025.967.156a27.258,27.258,0,0,1,5.344-.8c-1.971,1.671-4.165,2.736-5.6,4.979,2.409-1.333,4.349-2.953,6.655-4.477a14.073,14.073,0,0,0-.877,4.454,13.2,13.2,0,0,0,1.393-4.047,1.953,1.953,0,0,1,2.019-1.935,9.691,9.691,0,0,0,3.666-1.126,3.886,3.886,0,0,0,.742,3.119c.6.95,1.157,1.925,1.746,2.882a5.223,5.223,0,0,1,.8,2.856c-.008.735-.007,1.5-.742,1.91a2.164,2.164,0,0,1-2.285-.2,5.389,5.389,0,0,1-1.894-1.815c-.285-.483-.572-.966-.87-1.442-.286-.458-.624-.881-1.247-.727-.64.157-.706.746-.744,1.249a11.082,11.082,0,0,0,.367,3.094,12.42,12.42,0,0,1,.248,3.465c-.054.741-.228,1.384-1.065,1.516a1.435,1.435,0,0,1-1.625-1.129,8.242,8.242,0,0,1-.349-1.638c-.121-.873-.172-1.755-.3-2.626-.114-.767-.466-1.43-1.33-1.474-.908-.045-1.215.674-1.386,1.4a20.792,20.792,0,0,0-.334,4.3c-.017.8.021,1.646-.83,2.114a.919.919,0,0,1-1.129-.075,2.311,2.311,0,0,1-.376-2.377,19.689,19.689,0,0,0,.933-4.215c.061-1.846-1.226-2.739-2.912-2.022a4.04,4.04,0,0,0-1.6,1.243,23.247,23.247,0,0,0-3.856,6.752,8.768,8.768,0,0,1-2.184,3.554c-.358.337-.831.95-1.286.572-.412-.341.048-.968.29-1.391.537-.938,1.148-1.834,1.723-2.75a6.806,6.806,0,0,0,.477-.833,1.933,1.933,0,0,0-.054-2.26c-.642-.709-1.457-.523-2.236-.235a9.564,9.564,0,0,0-3.56,2.6,27.576,27.576,0,0,1-3.445,3.509c-.628.462-1.32.928-2.088.466a2,2,0,0,1-.8-2.124,8.09,8.09,0,0,1,1.321-3.713c2.839-4.164,6.367-7.214,11.858-6.842,2.077.141,4.131.123,5.54-1.815C673.646,93.5,673.387,93.042,671.5,92.527Z" transform="translate(-649.794 49.301)" fill="#fff"/>
  </g>
</svg>
