<svg xmlns="http://www.w3.org/2000/svg" width="86.888" height="85.337" viewBox="0 0 86.888 85.337">
  <g id="icon" transform="translate(0 -102.663)">
    <ellipse id="Ellipse_6" data-name="Ellipse 6" cx="38.06" cy="21.85" rx="38.06" ry="21.85" transform="matrix(0.788, -0.616, 0.616, 0.788, 0, 153.564)" fill="#fbac18"/>
    <path id="Path_2" data-name="Path 2" d="M17.271,6.449A39.319,39.319,0,0,0,.383,26.676c-.77,2.074-.425,3,1.459,4.207a22.232,22.232,0,0,0,5.816,2.653c5.668,1.653,11.5,1.891,18.4,2.024,2.287,0,5.616-.241,8.943-.528,4.262-.369,8.545-.512,12.766-1.3,6.505-1.214,12.859-2.843,18.74-6.039a12.636,12.636,0,0,0,5.159-5.122,1.9,1.9,0,0,0,.271-1.662c-.257-.658-.543-1.306-.843-1.946A32.3,32.3,0,0,0,65,10.535,32.148,32.148,0,0,0,44.549.254,42.4,42.4,0,0,0,17.271,6.449Zm16.767,4.63c.1-2.789.21-5.579.534-8.356.066-.556.21-.849.826-.876,1.194-.052,2.388-.149,3.577-.27.657-.067.915.1,1.037.825a70.481,70.481,0,0,1,.8,11.488,59.5,59.5,0,0,1-.258,7.6,7.156,7.156,0,0,1-.707,2.493c-.611,1.168-1.451,1.328-2.458.463a6.371,6.371,0,0,1-1.7-2.493A25.948,25.948,0,0,1,34.039,11.079ZM15.793,9.362a49.419,49.419,0,0,1,6.165-3.645c.127-.064.258-.14.4-.022-2.948,3.542-3.487,7.839-3.783,12.2-.141,2.061-.139,4.131-.257,6.193-.04.7.012,1.61-.868,1.808-.838.189-1.381-.486-1.841-1.116a8.657,8.657,0,0,1-1.414-3.954,21.144,21.144,0,0,1,.9-10.4A1.974,1.974,0,0,1,15.793,9.362ZM58.072,6.515a.817.817,0,0,1,.386.722,41.66,41.66,0,0,1-.468,11.794,7.8,7.8,0,0,1-.9,2.433c-.362.6-.8,1.21-1.59,1.13a1.892,1.892,0,0,1-1.458-1.327,17.225,17.225,0,0,1-1.109-4.632c-.595-4.278-.293-8.6-.769-13.011A33.311,33.311,0,0,1,58.072,6.515Zm-6.4-2.294c-.03,1.888-.042,3.776-.1,5.663a45.225,45.225,0,0,0,.516,8.9,11.374,11.374,0,0,0,.944,3.116,2.888,2.888,0,0,0,2.463,1.89,2.821,2.821,0,0,0,2.555-1.578A11.372,11.372,0,0,0,59.6,17.156c.349-3.238.715-6.492-.355-9.8A19.849,19.849,0,0,1,62.4,9.8a41.246,41.246,0,0,1,6.814,7.605c2.02,3.01,1.7,3.789-1,6.847-.005-1.284.263-2.511-.288-3.751a11.271,11.271,0,0,0-.541,3.774,1.348,1.348,0,0,1-.824,1.361,54.608,54.608,0,0,1-5.018,2.48A15.165,15.165,0,0,0,62.494,22c-.7,1.871-1.531,3.719-1.416,5.764.027.477-.059.61-.426.737-1.013.352-2.023.713-3.132,1.1a29.177,29.177,0,0,0,.638-5.248c-.524.286-.51.762-.578,1.13a23.524,23.524,0,0,0-.771,3.831.656.656,0,0,1-.553.692c-.786.208-1.574.41-2.459.638a10.18,10.18,0,0,0,.156-5.023c-.655.624-.546,1.462-.737,2.185a10.31,10.31,0,0,0-.141,1.3c-.226,1.774-.229,1.774-1.943,2.151-1.195.263-1.193.264-.951-.906A8.536,8.536,0,0,0,50,25.194a11,11,0,0,0-.473,3.1c-.042.725-.063,1.452-.119,2.175a1.6,1.6,0,0,1-1.943,1.539c-.521-.088-.241-.459-.22-.676a22.636,22.636,0,0,0-.081-5.9,9,9,0,0,0-.472,2.9,29.09,29.09,0,0,0-.188,3.151c-.009.521-.129.719-.7.806-2.659.4-5.335.616-8.013.791-3.585.234-7.154.7-10.751.738A79.021,79.021,0,0,1,11.209,32.7a1.077,1.077,0,0,1-1.032-1.021c-.308-1.96-.677-3.911-1.064-6.094-.889,2.356-.206,4.432.2,6.616a16.215,16.215,0,0,1-2.594-.731c-.442-.138-.483-.425-.533-.813a37.427,37.427,0,0,1-.081-8A9.648,9.648,0,0,0,5,26.676,27.683,27.683,0,0,0,5.266,30.7a1.823,1.823,0,0,1-.4-.05c-3.4-1.425-3.653-2.049-2.137-5.413A37.719,37.719,0,0,1,14.313,10.486c.2.429-.109.714-.212,1.023A19.866,19.866,0,0,0,13.756,23.4a5.493,5.493,0,0,0,1.98,3.052c1.54,1.134,3.007.621,3.487-1.23a14.729,14.729,0,0,0,.343-3.459c.072-4.145.178-8.31,1.778-12.208,2.18-5.31.936-4.234,6.6-6.178a41.84,41.84,0,0,1,5.073-1.212c.722-.151.914-.022.775.787a52.091,52.091,0,0,0-.863,13,20.16,20.16,0,0,0,1.715,6.934A7.784,7.784,0,0,0,36.4,25.351c1.71,1.589,3.663,1.2,4.7-.915a10.209,10.209,0,0,0,.867-3.907,79.115,79.115,0,0,0-.379-15.651,6.6,6.6,0,0,0-1.3-3.285A33.628,33.628,0,0,1,51.22,3.253C51.753,3.429,51.683,3.83,51.677,4.221Z" transform="matrix(0.921, -0.391, 0.391, 0.921, 2.015, 130.81)" fill="#fff"/>
    <path id="Path_2-2" data-name="Path 2" d="M17.271,6.449A39.319,39.319,0,0,0,.383,26.676c-.77,2.074-.425,3,1.459,4.207a22.232,22.232,0,0,0,5.816,2.653c5.668,1.653,11.5,1.891,18.4,2.024,2.287,0,5.616-.241,8.943-.528,4.262-.369,8.545-.512,12.766-1.3,6.505-1.214,12.859-2.843,18.74-6.039a12.636,12.636,0,0,0,5.159-5.122,1.9,1.9,0,0,0,.271-1.662c-.257-.658-.543-1.306-.843-1.946A32.3,32.3,0,0,0,65,10.535,32.148,32.148,0,0,0,44.549.254,42.4,42.4,0,0,0,17.271,6.449Zm16.767,4.63c.1-2.789.21-5.579.534-8.356.066-.556.21-.849.826-.876,1.194-.052,2.388-.149,3.577-.27.657-.067.915.1,1.037.825a70.481,70.481,0,0,1,.8,11.488,59.5,59.5,0,0,1-.258,7.6,7.156,7.156,0,0,1-.707,2.493c-.611,1.168-1.451,1.328-2.458.463a6.371,6.371,0,0,1-1.7-2.493A25.948,25.948,0,0,1,34.039,11.079ZM15.793,9.362a49.419,49.419,0,0,1,6.165-3.645c.127-.064.258-.14.4-.022-2.948,3.542-3.487,7.839-3.783,12.2-.141,2.061-.139,4.131-.257,6.193-.04.7.012,1.61-.868,1.808-.838.189-1.381-.486-1.841-1.116a8.657,8.657,0,0,1-1.414-3.954,21.144,21.144,0,0,1,.9-10.4A1.974,1.974,0,0,1,15.793,9.362ZM58.072,6.515a.817.817,0,0,1,.386.722,41.66,41.66,0,0,1-.468,11.794,7.8,7.8,0,0,1-.9,2.433c-.362.6-.8,1.21-1.59,1.13a1.892,1.892,0,0,1-1.458-1.327,17.225,17.225,0,0,1-1.109-4.632c-.595-4.278-.293-8.6-.769-13.011A33.311,33.311,0,0,1,58.072,6.515Zm-6.4-2.294c-.03,1.888-.042,3.776-.1,5.663a45.225,45.225,0,0,0,.516,8.9,11.374,11.374,0,0,0,.944,3.116,2.888,2.888,0,0,0,2.463,1.89,2.821,2.821,0,0,0,2.555-1.578A11.372,11.372,0,0,0,59.6,17.156c.349-3.238.715-6.492-.355-9.8A19.849,19.849,0,0,1,62.4,9.8a41.246,41.246,0,0,1,6.814,7.605c2.02,3.01,1.7,3.789-1,6.847-.005-1.284.263-2.511-.288-3.751a11.271,11.271,0,0,0-.541,3.774,1.348,1.348,0,0,1-.824,1.361,54.608,54.608,0,0,1-5.018,2.48A15.165,15.165,0,0,0,62.494,22c-.7,1.871-1.531,3.719-1.416,5.764.027.477-.059.61-.426.737-1.013.352-2.023.713-3.132,1.1a29.177,29.177,0,0,0,.638-5.248c-.524.286-.51.762-.578,1.13a23.524,23.524,0,0,0-.771,3.831.656.656,0,0,1-.553.692c-.786.208-1.574.41-2.459.638a10.18,10.18,0,0,0,.156-5.023c-.655.624-.546,1.462-.737,2.185a10.31,10.31,0,0,0-.141,1.3c-.226,1.774-.229,1.774-1.943,2.151-1.195.263-1.193.264-.951-.906A8.536,8.536,0,0,0,50,25.194a11,11,0,0,0-.473,3.1c-.042.725-.063,1.452-.119,2.175a1.6,1.6,0,0,1-1.943,1.539c-.521-.088-.241-.459-.22-.676a22.636,22.636,0,0,0-.081-5.9,9,9,0,0,0-.472,2.9,29.09,29.09,0,0,0-.188,3.151c-.009.521-.129.719-.7.806-2.659.4-5.335.616-8.013.791-3.585.234-7.154.7-10.751.738A79.021,79.021,0,0,1,11.209,32.7a1.077,1.077,0,0,1-1.032-1.021c-.308-1.96-.677-3.911-1.064-6.094-.889,2.356-.206,4.432.2,6.616a16.215,16.215,0,0,1-2.594-.731c-.442-.138-.483-.425-.533-.813a37.427,37.427,0,0,1-.081-8A9.648,9.648,0,0,0,5,26.676,27.683,27.683,0,0,0,5.266,30.7a1.823,1.823,0,0,1-.4-.05c-3.4-1.425-3.653-2.049-2.137-5.413A37.719,37.719,0,0,1,14.313,10.486c.2.429-.109.714-.212,1.023A19.866,19.866,0,0,0,13.756,23.4a5.493,5.493,0,0,0,1.98,3.052c1.54,1.134,3.007.621,3.487-1.23a14.729,14.729,0,0,0,.343-3.459c.072-4.145.178-8.31,1.778-12.208,2.18-5.31.936-4.234,6.6-6.178a41.84,41.84,0,0,1,5.073-1.212c.722-.151.914-.022.775.787a52.091,52.091,0,0,0-.863,13,20.16,20.16,0,0,0,1.715,6.934A7.784,7.784,0,0,0,36.4,25.351c1.71,1.589,3.663,1.2,4.7-.915a10.209,10.209,0,0,0,.867-3.907,79.115,79.115,0,0,0-.379-15.651,6.6,6.6,0,0,0-1.3-3.285A33.628,33.628,0,0,1,51.22,3.253C51.753,3.429,51.683,3.83,51.677,4.221Z" transform="matrix(0.921, -0.391, 0.391, 0.921, 2.015, 130.81)" fill="#fff"/>
  </g>
</svg>
