<svg xmlns="http://www.w3.org/2000/svg" width="87.898" height="94.571" viewBox="0 0 87.898 94.571">
  <g id="icon" transform="translate(0 -93.429)">
    <ellipse id="Ellipse_6" data-name="Ellipse 6" cx="38.06" cy="21.85" rx="38.06" ry="21.85" transform="matrix(0.788, -0.616, 0.616, 0.788, 0, 153.564)" fill="#fbac18"/>
    <g id="icon-2" data-name="icon" transform="matrix(0.809, 0.588, -0.588, 0.809, 47.447, 93.429)">
      <path id="Path_184" data-name="Path 184" d="M44.3,5.6C38.943-.07,29.312-3.289,21.394,5.165A32.038,32.038,0,0,0,12.605,31.2,32.9,32.9,0,0,0,16.4,44.53c-.107.074-.256.171-.4.275a15.3,15.3,0,0,0-3.14,2.616,1.4,1.4,0,0,0,1.121,2.408c.462,0,.924-.054,1.4-.084a3.2,3.2,0,0,1-.568,1.527c-1.768,3.461-3.41,6.98-5.05,10.5a41.9,41.9,0,0,1-2.711,5.4c-.258.395-.461.71-1.091.632A5.167,5.167,0,0,0,.615,70a2.942,2.942,0,0,0,.793,4.331,5.233,5.233,0,0,0,3.984.346c.7-.138,1.061.008,1.331.638A5.608,5.608,0,0,0,9.559,78.28a2.71,2.71,0,0,0,3.692-.942,6.406,6.406,0,0,0,.439-6.288,2.173,2.173,0,0,1-.209-1.545c.268-1.006.521-2.021.865-3,1.8-5.145,4.888-9.579,7.891-14.048.478.447.948.943,1.477,1.366a1.216,1.216,0,0,0,1.4.252,1.2,1.2,0,0,0,.549-1.208c-.014-1.439.018-2.88-.069-4.314-.031-.525.089-.635.566-.749a33.1,33.1,0,0,0,14.083-7.653,30.232,30.232,0,0,0,7.68-11.2C51.256,21.194,50.939,12.635,44.3,5.6Zm-32.135,66.4a4.518,4.518,0,0,1-.333,4.241c-.363.673-.9.7-1.56.428a4.781,4.781,0,0,1-2.146-2.329c-.981-1.631-.993-1.626-2.832-1.309a7.6,7.6,0,0,1-2.568.172,1.54,1.54,0,0,1-1.24-1.052c-.266-.635.088-.99.47-1.4a3.479,3.479,0,0,1,3.167-1.243c.533.072,1.077.06,1.614.112A1.441,1.441,0,0,0,8.417,68.61c1.01-2.786,2.654-5.27,3.828-7.974a96.965,96.965,0,0,0,4.013-10c.26-.847.546-1.7,1.782-1.585.309,1.318-.352,3.235,2.124,3.256-.778,1.207-1.484,2.352-2.237,3.464a38.33,38.33,0,0,0-6.021,12.8A4.839,4.839,0,0,0,12.166,72.009ZM39.352,38.762a32.249,32.249,0,0,1-13.671,7.509,10.058,10.058,0,0,0-1.312.486c-.291.118-.742.138-.76.5-.021.41.443.392.731.469.257.07.351.128.266.423A28.664,28.664,0,0,0,24,52.047,2.819,2.819,0,0,0,20.423,50.7c-.542.138-.794.011-.787-.606a5.547,5.547,0,0,0-.193-1.491,1.389,1.389,0,0,0-1.723-1.076c-1.242.165-2.337.97-3.832.857a23.486,23.486,0,0,1,3.457-3.534,8.545,8.545,0,0,1-1.5-3.28c-1.448-5.259-2.7-10.565-2.165-16.069A31.48,31.48,0,0,1,22.774,5.619c6.92-6.93,15.177-4.406,19.9.284,6,5.959,7.4,13.667,4.188,21.548A29.6,29.6,0,0,1,39.352,38.762Z" fill="#fff"/>
      <path id="Path_185" data-name="Path 185" d="M11.3.011A2.273,2.273,0,0,0,9.645.679,28.092,28.092,0,0,0,3.086,8.2,17.626,17.626,0,0,0,.125,15.083a4.9,4.9,0,0,0,.831,4.2C1.57,11.233,6.259,5.539,11.3.011Z" transform="translate(17.354 3.522)" fill="#fff"/>
      <path id="Path_186" data-name="Path 186" d="M4.946,10.791A18.627,18.627,0,0,0,4.119,0a49.334,49.334,0,0,1-.662,10.568A54.107,54.107,0,0,1,0,20.519C2.257,17.64,4.284,14.558,4.946,10.791Z" transform="translate(39.101 8.366)" fill="#fff"/>
      <path id="Path_187" data-name="Path 187" d="M.007,11.174A52.934,52.934,0,0,1,7.474,0C4.628.082-.207,7.289.007,11.174Z" transform="translate(23.207 5.646)" fill="#fff"/>
      <path id="Path_188" data-name="Path 188" d="M8.76,0C6.19,2.56,2.8,3.91,0,6.1A12.8,12.8,0,0,0,8.76,0Z" transform="translate(31.111 35.314)" fill="#fff"/>
      <path id="Path_189" data-name="Path 189" d="M1.439,7.007C1.031,4.685.648,2.359.249,0A.454.454,0,0,0,0,.517c.111,2.048.2,4.1.353,6.143A7.551,7.551,0,0,0,1.1,9.244c.1.22.223.5.546.4s.287-.419.247-.641C1.768,8.335,1.557,7.679,1.439,7.007Z" transform="translate(16.518 32.283)" fill="#fff"/>
      <path id="Path_190" data-name="Path 190" d="M3.474.732c.12-.189.4-.427.135-.653-.22-.187-.486,0-.675.155a10.5,10.5,0,0,0-2.59,3.4A2.884,2.884,0,0,0,.16,5.966C1.473,4.211,2.4,2.425,3.474.732Z" transform="translate(27.368 8.386)" fill="#fff"/>
      <path id="Path_191" data-name="Path 191" d="M2.154.711a.485.485,0,0,0-.2-.657.516.516,0,0,0-.667.2C.589,1.355-.236,2.426.063,4.078A6.608,6.608,0,0,0,2.154.711Z" transform="translate(30.311 9.497)" fill="#fff"/>
      <path id="Path_192" data-name="Path 192" d="M1.419.646a.421.421,0,0,0-.1-.576C1.084-.1.881.07.779.238a3.087,3.087,0,0,0-.76,2.138A3.483,3.483,0,0,0,1.419.646Z" transform="translate(32.988 10.413)" fill="#fff"/>
      <path id="Path_193" data-name="Path 193" d="M.57,0C.3.743-.2,1.333.085,2.145A.228.228,0,0,0,.5,2.228,2.2,2.2,0,0,0,.844.221C.84.2.794.178.57,0Z" transform="translate(39.504 11.464)" fill="#fff"/>
      <path id="Path_194" data-name="Path 194" d="M.031.143a2.181,2.181,0,0,0,.5,1.68.2.2,0,0,0,.345-.049A1.8,1.8,0,0,0,.53.172C.3-.033.074-.069.031.143Z" transform="translate(18.867 36.896)" fill="#fff"/>
      <path id="Path_195" data-name="Path 195" d="M.963,0A1.048,1.048,0,0,0,.084.527c-.118.2-.148.416.152.483A.93.93,0,0,0,1.22.549C1.368.346,1.292.15.963,0Z" transform="translate(27.024 42.664)" fill="#fff"/>
    </g>
  </g>
</svg>
