<svg xmlns="http://www.w3.org/2000/svg" width="25.158" height="22" viewBox="0 0 25.158 22">
  <g id="shopping-basket_1_" data-name="shopping-basket (1)" transform="translate(0 -32.135)">
    <g id="Group_163100" data-name="Group 163100" transform="translate(0.713 40.042)">
      <g id="Group_163099" data-name="Group 163099">
        <path id="Path_436" data-name="Path 436" d="M37.628,193.053a.787.787,0,0,0-.939.594l-2.68,11.908H18.717l-2.653-11.891a.786.786,0,0,0-1.535.343l2.791,12.506a.786.786,0,0,0,.767.615h16.55a.785.785,0,0,0,.767-.613l2.818-12.522A.786.786,0,0,0,37.628,193.053Z" transform="translate(-14.51 -193.034)"/>
      </g>
    </g>
    <g id="Group_163102" data-name="Group 163102" transform="translate(0 40.007)">
      <g id="Group_163101" data-name="Group 163101">
        <path id="Path_437" data-name="Path 437" d="M24.372,192.329H.786a.786.786,0,1,0,0,1.572H24.372a.786.786,0,1,0,0-1.572Z" transform="translate(0 -192.329)"/>
      </g>
    </g>
    <g id="Group_163104" data-name="Group 163104" transform="translate(1.572 43.129)">
      <g id="Group_163103" data-name="Group 163103">
        <path id="Path_438" data-name="Path 438" d="M53.227,255.865H32.786a.786.786,0,1,0,0,1.572H53.227a.786.786,0,1,0,0-1.572Z" transform="translate(-32 -255.865)"/>
      </g>
    </g>
    <g id="Group_163106" data-name="Group 163106" transform="translate(2.359 46.274)">
      <g id="Group_163105" data-name="Group 163105" transform="translate(0 0)">
        <path id="Path_439" data-name="Path 439" d="M67.655,319.865H48.786a.786.786,0,0,0,0,1.572H67.655a.786.786,0,1,0,0-1.572Z" transform="translate(-48 -319.865)"/>
      </g>
    </g>
    <g id="Group_163108" data-name="Group 163108" transform="translate(3.145 49.418)">
      <g id="Group_163107" data-name="Group 163107">
        <path id="Path_440" data-name="Path 440" d="M82.082,383.865h-17.3a.786.786,0,0,0,0,1.572h17.3a.786.786,0,0,0,0-1.572Z" transform="translate(-64 -383.865)"/>
      </g>
    </g>
    <g id="Group_163110" data-name="Group 163110" transform="translate(6.32 40.244)">
      <g id="Group_163109" data-name="Group 163109" transform="translate(0 0)">
        <path id="Path_441" data-name="Path 441" d="M131.634,210.1l-1.441-12.251a.786.786,0,0,0-1.561.184l1.441,12.251a.787.787,0,0,0,.78.694.745.745,0,0,0,.093-.006A.787.787,0,0,0,131.634,210.1Z" transform="translate(-128.626 -197.154)"/>
      </g>
    </g>
    <g id="Group_163112" data-name="Group 163112" transform="translate(15.944 40.244)">
      <g id="Group_163111" data-name="Group 163111" transform="translate(0 0)">
        <path id="Path_442" data-name="Path 442" d="M326.8,197.163a.785.785,0,0,0-.873.689L324.485,210.1a.785.785,0,0,0,.689.873.733.733,0,0,0,.093.006.787.787,0,0,0,.78-.694l1.441-12.251A.785.785,0,0,0,326.8,197.163Z" transform="translate(-324.479 -197.157)"/>
      </g>
    </g>
    <g id="Group_163114" data-name="Group 163114" transform="translate(11.793 40.244)">
      <g id="Group_163113" data-name="Group 163113" transform="translate(0 0)">
        <path id="Path_443" data-name="Path 443" d="M240.786,197.161a.786.786,0,0,0-.786.786v12.319a.786.786,0,0,0,1.572,0V197.947A.786.786,0,0,0,240.786,197.161Z" transform="translate(-240 -197.161)"/>
      </g>
    </g>
    <g id="Group_163116" data-name="Group 163116" transform="translate(7.654 32.135)">
      <g id="Group_163115" data-name="Group 163115" transform="translate(0 0)">
        <path id="Path_444" data-name="Path 444" d="M159.464,32.177a.787.787,0,0,0-1,.491l-2.652,7.788a.786.786,0,1,0,1.489.506l2.652-7.788A.787.787,0,0,0,159.464,32.177Z" transform="translate(-155.773 -32.135)"/>
      </g>
    </g>
    <g id="Group_163118" data-name="Group 163118" transform="translate(13.402 32.136)">
      <g id="Group_163117" data-name="Group 163117" transform="translate(0 0)">
        <path id="Path_445" data-name="Path 445" d="M276.927,40.471l-2.653-7.788a.786.786,0,1,0-1.489.506l2.653,7.788a.786.786,0,1,0,1.489-.506Z" transform="translate(-272.743 -32.15)"/>
      </g>
    </g>
  </g>
</svg>
