<svg xmlns="http://www.w3.org/2000/svg" width="59.985" height="60" viewBox="0 0 59.985 60">
  <g id="Group_163124" data-name="Group 163124" transform="translate(-930 -459)">
    <path id="Icon_ionic-ios-search" data-name="Icon ionic-ios-search" d="M63.781,60.15,47.1,43.311a23.775,23.775,0,1,0-3.608,3.655L60.064,63.7a2.567,2.567,0,0,0,3.624.094A2.584,2.584,0,0,0,63.781,60.15ZM28.416,47.169a18.773,18.773,0,1,1,13.278-5.5A18.657,18.657,0,0,1,28.416,47.169Z" transform="translate(925.5 454.507)"/>
    <path id="Icon_awesome-exclamation" data-name="Icon awesome-exclamation" d="M7.375,16.875A3.125,3.125,0,1,1,4.25,13.75,3.129,3.129,0,0,1,7.375,16.875ZM1.487.984l.531,10.625a.937.937,0,0,0,.936.891H5.546a.937.937,0,0,0,.936-.891L7.013.984A.938.938,0,0,0,6.077,0H2.423A.938.938,0,0,0,1.487.984Z" transform="translate(950.125 473)"/>
  </g>
</svg>
