<svg xmlns="http://www.w3.org/2000/svg" viewBox="0 0 1642.7 210.56"><defs><style>.cls-1{fill:#027ab7;}.cls-2{fill:#ef0220;}</style></defs><g id="Layer_2" data-name="Layer 2"><g id="Layer_1-2" data-name="Layer 1"><path class="cls-1" d="M171.37,185.91H107L76.62,141H60.27v44.95H0V95.51H82.23q12.27,0,18.39-5.49t6.14-15.46q0-10-6.14-15.45t-18.39-5.5H0V7.14H86.07q24.77,0,43.15,8.17t28.36,23.5q10,15.31,9.95,35.75,0,19.16-8.68,33.46t-25,22.73Z"/><polygon class="cls-1" points="318.48 7.13 259.23 7.13 181.07 185.91 242.37 185.91 254.38 154.75 270.98 111.33 288.34 66.39 305.71 111.33 322.31 154.75 334.31 185.91 396.63 185.91 318.48 7.13"/><polygon class="cls-1" points="756.23 7.13 696.98 7.13 618.83 185.91 680.12 185.91 692.13 154.75 708.73 111.33 726.1 66.39 743.46 111.33 760.06 154.75 772.07 185.91 834.38 185.91 756.23 7.13"/><polygon class="cls-1" points="1403.97 7.13 1344.72 7.13 1266.57 185.91 1327.86 185.91 1339.87 154.75 1356.47 111.33 1373.83 66.39 1391.2 111.33 1407.8 154.75 1419.81 185.91 1482.12 185.91 1403.97 7.13"/><path class="cls-1" d="M1013.93,185.91l-.51-81.47L974.6,169.82H948l-38.83-62.57v78.66h-54.9V7.13h49.54l58.23,95.27,56.7-95.27h49.55l.51,178.78Z"/><path class="cls-2" d="M1225,7.14l-25.25,42.43,29.21,49.26L1283.2,7.14Z"/><path class="cls-1" d="M1215.78,115.37v70.55h-60.27V120.28L1088.08,7.14h63.6l25,42.23c.08.12.63,1.05,1.56,2.63l.54.93c.2.32.42.67.63,1l8.84,15,0,0C1195.86,81.8,1206.19,99.22,1215.78,115.37Z"/><path class="cls-1" d="M573.44,161.08a94.9,94.9,0,0,0,17.91-29.22,93.31,93.31,0,0,0,6.33-34.08A97.35,97.35,0,0,0,590.81,62a98.36,98.36,0,0,0-50-53.47Q523.06,0,501.25,0a95.54,95.54,0,0,0-39.2,8,97.64,97.64,0,0,0-51.31,52.39,93.89,93.89,0,0,0-7.27,36.37,96.29,96.29,0,0,0,7,36.09,99.22,99.22,0,0,0,19.66,31.11,96.08,96.08,0,0,0,30.44,21.82,87.58,87.58,0,0,0,23.37,7V174.84c0-11.83-5.91-22.62-15.33-29.77a57.17,57.17,0,1,1,68.78,0c-9.42,7.15-15.33,17.94-15.33,29.77v16.79c.56-.12,1.12-.24,1.68-.38a94.14,94.14,0,0,0,21.15-7.81l8.61,9.16h49Z"/><path class="cls-2" d="M513.17,210.56H492.83a8.69,8.69,0,0,1-8.69-8.69V197.7h37.72v4.17A8.69,8.69,0,0,1,513.17,210.56Z"/><path class="cls-1" d="M1477.71,7.13V53.87h165V7.13Zm52.36,178.78h60.27V73h-60.27Z"/></g></g></svg>