<svg xmlns="http://www.w3.org/2000/svg" width="13.844" height="15" viewBox="0 0 13.844 15">
  <g id="Iconly_Light-Outline_Delete" data-name="Iconly/Light-Outline/Delete" transform="translate(-3 -2)">
    <g id="Delete" transform="translate(3 2)">
      <path id="Combined-Shape" d="M12.289,5.04a.563.563,0,0,1,.516.606c0,.051-.411,5.084-.645,7.2a2.232,2.232,0,0,1-2.318,2.132c-1,.017-1.964.027-2.907.027-1.016,0-2.007-.011-2.987-.031a2.225,2.225,0,0,1-2.264-2.122c-.236-2.13-.641-7.151-.644-7.2a.562.562,0,0,1,.515-.606.578.578,0,0,1,.606.515c0,.033.168,2.083.348,4.111l.036.4c.091,1.008.183,1.977.257,2.652a1.1,1.1,0,0,0,1.169,1.121c1.875.04,3.788.042,5.851,0a1.122,1.122,0,0,0,1.22-1.13c.233-2.1.638-7.112.642-7.163A.575.575,0,0,1,12.289,5.04ZM8.509,0A1.525,1.525,0,0,1,9.981,1.13l.191.946a.674.674,0,0,0,.649.541h2.461a.563.563,0,1,1,0,1.125H.563a.563.563,0,1,1,0-1.125H3.023l.076,0a.676.676,0,0,0,.574-.536l.182-.912A1.533,1.533,0,0,1,5.334,0Zm0,1.125H5.334a.4.4,0,0,0-.384.294L4.776,2.3a1.784,1.784,0,0,1-.1.32H9.164a1.79,1.79,0,0,1-.1-.32l-.182-.912A.393.393,0,0,0,8.509,1.125Z" transform="translate(0 0)" fill-rule="evenodd"/>
    </g>
  </g>
</svg>
